<svg xmlns="http://www.w3.org/2000/svg" xml:space="preserve" height="596" width="600"><path style="stroke-width:4.94638" d="M411.539 116.06c41.55 0 75.185 33.635 75.185 75.185 0 41.55-33.636 75.185-75.185 75.185-41.55 0-75.185-33.636-75.185-75.185 0-41.55 33.635-75.185 75.185-75.185zm94.476 169.66h-171.64c-24.732 0-48.969 3.463-66.776 27.7-7.914 11.871-79.142 101.896-79.142 101.896H88.046c-17.807 0-32.647 14.839-32.647 32.646 0 17.807 14.84 32.646 32.647 32.646h114.26c8.41 0 16.819-3.463 22.754-9.398l66.776-81.121c1.979-1.979 3.463-2.968 6.43-2.968 5.442 0 9.399 3.463 9.399 9.398v147.897h207.748V398.498c0-5.441 3.462-9.398 9.398-9.398 5.44 0 9.398 3.462 9.398 9.398v145.918h65.787v-164.22c.494-51.937-42.044-94.476-93.981-94.476zm-485.24 35.12v-9.893H142.95c-1.978 3.462-2.967 7.914-3.957 11.377-.989 5.935-.494 10.882.99 15.828l-102.39-.495c-9.399 0-16.818-7.42-16.818-16.817M155.81 100.23c0 17.313-.495 172.629-.495 189.941H38.582l73.206-60.84-.494-129.1h44.517m11.377 237.92h-4.947c-2.968-2.968-3.957-7.42-2.968-11.871 1.484-7.915 7.42-14.84 9.893-15.829 3.957-1.484 6.925-4.946 6.925-9.398l.495-210.716c0-5.44-4.452-10.387-10.388-10.387h-54.41V56.208c0-3.957-2.473-7.914-5.935-9.398-3.463-1.484-8.41-.989-10.883 1.979l-71.722 70.733C10.388 131.888.989 155.631.989 172.943L0 320.84c0 20.774 16.818 37.592 37.098 37.592l129.595.495c5.441 0 10.387-4.452 10.387-10.388 0-5.935-3.957-10.387-9.892-10.387"/></svg>