<svg xmlns="http://www.w3.org/2000/svg" height="600" width="600" xml:space="preserve"><path style="stroke-width:1.2766" d="M288.342 130.892 356.854 86.7 300.931 0H95.971l118.38 183.531c14.148-28.108 41.57-48.411 73.99-52.64Zm55.99 9.458c28.108 14.147 48.41 41.57 52.64 73.99l44.191 68.513 86.7-55.923V21.97Zm-139.46 99.142L160.7 171.009 74 226.93v204.962L257.531 313.51c-28.117-14.152-48.437-41.588-52.658-74.02z"/><circle style="stroke-width:1.2766" r="58.587" cy="226.931" cx="300.931"/><path style="stroke-width:1.2766" d="M387.511 270.33c-14.147 28.109-41.57 48.412-73.99 52.64l-68.512 44.192 36.774 57.012V600h38.297V453.862h185.813z"/></svg>