<?xml version="1.0" encoding="UTF-8" standalone="no"?>
<svg
   xmlns:dc="http://purl.org/dc/elements/1.1/"
   xmlns:cc="http://creativecommons.org/ns#"
   xmlns:rdf="http://www.w3.org/1999/02/22-rdf-syntax-ns#"
   xmlns:svg="http://www.w3.org/2000/svg"
   xmlns="http://www.w3.org/2000/svg"
   xmlns:sodipodi="http://sodipodi.sourceforge.net/DTD/sodipodi-0.dtd"
   xmlns:inkscape="http://www.inkscape.org/namespaces/inkscape"
   inkscape:version="1.0beta1 (fe3e306, 2019-09-17)"
   sodipodi:docname="ico-best.svg"
   xml:space="preserve"
   enable-background="new 0 0 256 173"
   viewBox="0 0 600 600"
   height="600"
   width="600"
   y="0px"
   x="0px"
   id="Layer_1"
   version="1.1"><metadata
   id="metadata24">
  <rdf:RDF>
    <cc:Work
       rdf:about="">
      <dc:format>image/svg+xml</dc:format>
      <dc:type
         rdf:resource="http://purl.org/dc/dcmitype/StillImage" />
      <dc:title></dc:title>
    </cc:Work>
  </rdf:RDF>
</metadata>
<defs
   id="defs22" />
<sodipodi:namedview
   inkscape:current-layer="Layer_1"
   inkscape:window-maximized="0"
   inkscape:window-y="543"
   inkscape:window-x="0"
   inkscape:cy="558"
   inkscape:cx="398.00039"
   inkscape:zoom="0.35"
   fit-margin-bottom="0"
   fit-margin-right="0"
   fit-margin-left="0"
   fit-margin-top="0"
   showgrid="false"
   id="namedview20"
   inkscape:window-height="907"
   inkscape:window-width="1600"
   inkscape:pageshadow="2"
   inkscape:pageopacity="0"
   guidetolerance="10"
   gridtolerance="10"
   objecttolerance="10"
   borderopacity="1"
   inkscape:document-rotation="0"
   bordercolor="#666666"
   pagecolor="#ffffff" />

<path
   style="stroke-width:2.38095"
   inkscape:connector-curvature="0"
   id="path10"
   d="m 300.60285,234.62837 c 36.15708,0 65.31418,-29.15948 65.31418,-65.31419 0,-36.1547 -28.92615,-65.31418 -65.31418,-65.31418 -36.15709,0 -65.31419,29.15948 -65.31419,65.31418 0.23095,36.39042 29.39043,65.31419 65.31419,65.31419 z M 148.97927,423.80902 H 31.646127 c -38.0213692,0 -40.1213659,-58.08324 0.699999,-58.08324 H 134.04834 l 58.31658,-85.84272 C 209.6268,256.32357 229.222,245.12597 256.9791,245.12597 h 87.00939 c 27.75948,0 47.35231,10.26427 64.61419,34.75709 l 58.5499,85.84272 h 102.40461 c 41.05469,0 38.48803,58.08324 1.39999,58.08324 H 453.62403 c -9.33093,0 -20.52853,-3.26666 -27.05948,-13.29521 L 381.77653,346.59962 381.54319,506.6208 H 221.05773 l -0.23333,-160.02118 -44.78803,63.91419 c -6.53094,9.79522 -17.72616,13.29521 -27.0571,13.29521 z" />

<path
   style="stroke-width:2.38095"
   inkscape:connector-curvature="0"
   id="path12"
   d="m 530.8501,326.72108 c 38.05233,0 69.1499,-30.89281 69.1499,-69.14989 0,-38.25708 -30.89281,-69.14989 -69.1499,-69.14989 -38.25708,0 -68.94513,31.09757 -68.94513,69.35465 0,38.05232 30.89281,68.94513 68.94513,68.94513 z m -3.81904,-63.28562 c -12.68331,-4.43332 -20.5952,-10.84284 -20.5952,-22.23091 0,-10.50237 6.95475,-18.75474 19.70949,-21.34521 v -11.38807 h 9.5476 v 10.84284 c 7.90952,0 13.63808,1.63571 17.86664,3.88808 l -3.88809,13.63808 c -3.13809,-1.29524 -8.25236,-3.47857 -15.27616,-3.47857 -7.0238,0 -10.84284,3.47857 -10.84284,6.95475 0,4.77381 4.43332,6.61428 13.98093,10.50237 13.02617,4.7738 19.09521,11.38808 19.09521,22.23092 0,10.84284 -6.61428,19.0952 -20.59521,22.23091 v 10.84284 h -9.5476 v -10.50236 c -8.25237,0 -16.57141,-2.18333 -20.59521,-4.43333 l 3.47857,-13.98093 c 4.43332,2.18333 11.38807,4.7738 18.75473,4.7738 7.90951,0 11.7976,-3.47856 11.7976,-8.25236 0,-4.77381 -3.75238,-6.74523 -12.89046,-10.29285 z" />

<path
   style="stroke-width:2.38095"
   inkscape:connector-curvature="0"
   id="path14"
   d="M 95.193646,223.08077 66.800834,262.3069 48.643719,242.58074 c -2.016663,-2.24048 -1.942854,-5.60476 0.223809,-7.77142 2.240473,-2.01666 5.604754,-1.94285 7.771417,0.22381 l 9.190462,9.93808 20.473777,-28.24281 c 1.792855,-2.39048 5.154754,-3.06429 7.695226,-1.26905 2.392854,1.71904 2.990472,5.23094 1.195236,7.62142 z m 43.188024,27.64519 c 3.73571,3.58571 2.01666,9.86189 -2.91428,11.05713 l -17.18569,4.40951 4.85714,17.03569 c 1.34523,4.93095 -3.28809,9.48808 -8.14523,8.14523 l -16.735686,-4.78095 23.909486,47.59517 -19.94997,-5.67857 -5.528558,18.45474 -26.449958,-52.7523 -26.449959,52.74991 -5.528563,-18.45473 -19.949969,5.67856 23.909487,-47.59516 -16.735688,4.78095 c -4.930945,1.34523 -9.488081,-3.28809 -8.145226,-8.14523 L 22.196142,266.19022 5.0104543,261.78547 C 0.07950957,260.59023 -1.6395354,254.31405 2.0961731,250.72834 L 14.648534,238.39979 2.0199828,226.07124 c -3.7357085,-3.58571 -2.01666363,-9.86189 2.9142811,-11.05713 L 22.119951,210.6046 17.262816,193.56891 c -1.345236,-4.93095 3.28809,-9.48808 8.145225,-8.14523 l 17.035688,4.85714 4.409517,-17.18569 c 1.195236,-4.93094 7.621417,-6.57618 11.057125,-2.91428 l 12.328553,12.70236 12.328552,-12.70236 c 3.511899,-3.73571 9.861889,-1.94285 11.057125,2.91428 l 4.409513,17.18569 17.035686,-4.85714 c 4.93095,-1.34523 9.48808,3.28809 8.14523,8.14523 l -4.85714,17.03569 17.18569,4.40951 c 4.93094,1.19524 6.64999,7.47142 2.91428,11.05713 l -12.62855,12.32855 z m -25.32853,-12.32855 c 0,-22.86425 -18.60473,-41.31898 -41.318981,-41.31898 -22.86425,0 -41.318983,18.53092 -41.318983,41.39279 0,22.86187 18.454733,41.31898 41.318983,41.31898 22.86425,0 41.318981,-18.52854 41.318981,-41.39279 z" />

<g
   transform="translate(-1.9996059,-2)"
   id="shopping_cart">
</g>

<g
   transform="translate(-1.9996059,-2)"
   id="cross">
</g>

<g
   transform="translate(-1.9996059,-2)"
   id="leaf">
</g>

</svg>
