<svg xmlns="http://www.w3.org/2000/svg" height="600" width="600" data-name="Calque 1"><path style="stroke-width:2.80409" d="M306.533 378.286V238.082a4.697 4.697 0 1 0-9.394 0v140.204a4.697 4.697 0 0 0 9.394 0z"/><path style="stroke-width:2.80409" d="M442.587 203.059c-9.926 0-22.292-4.29-35.36-8.805C390.656 188.505 371.868 182 352.38 182c-22.432 0-36.284 9.87-43.856 18.17a57.035 57.035 0 0 0-6.673 8.974 57.035 57.035 0 0 0-6.674-8.973C287.605 191.758 273.865 182 251.32 182c-19.516 0-38.304 6.505-54.792 12.254-13.18 4.57-25.517 8.805-35.444 8.805a4.683 4.683 0 0 0-4.683 4.683v188.995a4.683 4.683 0 0 0 4.683 4.683c11.497 0 24.592-4.542 38.444-9.337 15.872-5.609 33.874-11.721 51.764-11.721 15.338 0 27.789 5.075 36.93 15.114a4.694 4.694 0 1 0 6.926-6.338c-7.571-8.412-21.311-18.17-43.856-18.17-19.488 0-38.276 6.505-54.848 12.254-11.216 3.841-21.676 7.515-30.677 8.412V212.172c10.32-.981 21.732-4.935 33.65-9.085 15.87-5.608 33.873-11.721 51.763-11.721 36.313.028 45.79 28.77 46.295 29.891a4.683 4.683 0 0 0 8.973 0c0-.308 9.618-29.947 46.072-29.947 17.89 0 35.892 6.225 51.763 11.72 12.002 4.15 23.414 8.105 33.65 9.086v179.462c-9.002-1.038-19.63-4.683-30.677-8.412-16.573-5.609-35.36-12.254-54.848-12.254-22.433 0-36.285 9.87-43.856 18.17a4.694 4.694 0 1 0 6.926 6.337c9.141-10.038 21.591-15.114 36.93-15.114 17.89 0 35.892 6.226 51.763 11.722 13.852 4.795 26.947 9.337 38.444 9.337a4.683 4.683 0 0 0 4.683-4.683v-188.94a4.683 4.683 0 0 0-4.71-4.682z"/><path style="stroke-width:2.80409" d="M442.587 410.814c-9.926 0-22.292-4.29-35.36-8.805-16.572-5.608-35.36-12.254-54.848-12.254-21.17 0-34.574 8.721-42.397 16.628h-16.264c-7.824-7.935-21.227-16.628-42.398-16.628-19.488 0-38.276 6.506-54.848 12.254-13.123 4.515-25.461 8.805-35.388 8.805a4.697 4.697 0 0 0 0 9.394c11.497 0 24.592-4.543 38.444-9.338 15.872-5.608 33.874-11.721 51.764-11.721 15.338 0 27.789 5.075 36.93 15.114a4.683 4.683 0 0 0 3.477 1.514H312a4.683 4.683 0 0 0 3.477-1.514c9.141-10.039 21.591-15.114 36.93-15.114 17.89 0 35.892 6.225 51.763 11.721 13.852 4.795 26.947 9.338 38.444 9.338a4.697 4.697 0 0 0-.028-9.394z"/><path style="stroke-width:2.80409;fill:#ca1a1a" d="M593.531 207.714a241.797 241.797 0 0 1-47.67 17.217c-16.123 4.57-32.947 8.58-48.454 15.03a111.154 111.154 0 0 0-21.283 10.795 77.225 77.225 0 0 0-10.431 7.431 131.4 131.4 0 0 0-9.562 9.17 1.514 1.514 0 1 0 1.766 2.411 116.117 116.117 0 0 1 10.628-7.066 98.564 98.564 0 0 1 11.216-5.973 192.725 192.725 0 0 1 22.433-9.842 3.169 3.169 0 0 0 1.655-.505h.616l2.973-.953c1.907-.645 3.87-1.29 6.14-1.907 4.207-1.15 8.02-2.272 11.946-3.421l24.48-6.646a263.08 263.08 0 0 0 39.257-13.684 11.216 11.216 0 0 1-.645 3.197 20.133 20.133 0 0 1-.953 4.206s-.309.645-.309.813a1.654 1.654 0 0 1-.364 1.15c-.28.813-.589 1.598-.925 2.411-.673 1.458-1.29 2.804-1.963 4.206 0 0-.673 1.29-.673 1.459a8.412 8.412 0 0 0-1.29 1.962 29.022 29.022 0 0 0-2.608 3.365 16.825 16.825 0 0 0-1.598 1.767 2.552 2.552 0 0 1-.954.813v.309a91.049 91.049 0 0 1-7.066 5.972 19.937 19.937 0 0 1-1.907 1.29 1.514 1.514 0 0 1-.673.309 1.122 1.122 0 0 1-.645.308 19.825 19.825 0 0 1-4.234 2.412 86.01 86.01 0 0 1-8.693 3.925 2.3 2.3 0 0 0-.673 0 4.178 4.178 0 0 0-.645.309l-2.27.645c-1.543.448-3.198.953-4.796 1.29a74.056 74.056 0 0 1-7.43 1.514 31.91 31.91 0 0 1-4.15.645h-1.655a1.318 1.318 0 0 0-.954.196c-5.16.308-10.347 0-15.45.308a5.608 5.608 0 0 0-5.188 3.197 4.402 4.402 0 0 0 2.636 5.608 74.56 74.56 0 0 0 20.638 0 97.498 97.498 0 0 0 19.236-4.234 76.72 76.72 0 0 0 16.825-7.599v2.131a5.608 5.608 0 0 0-.589 1.963 3.309 3.309 0 0 1-.308.785 18.45 18.45 0 0 1-1.655 4.066c-.645.505-.645 1.15-1.29 1.598a.645.645 0 0 1-.308.645c-.673 1.15-1.598 2.272-2.271 3.421a4.15 4.15 0 0 0-1.29 1.459 3 3 0 0 0-.673.672c-1.29 1.15-2.244 1.907-3.197 2.805-.953.897-1.963 1.598-3.28 2.411a5.188 5.188 0 0 0-1.29.785 4.57 4.57 0 0 0-1.29 1.01c-2.608 1.29-5.188 2.551-8.076 3.701a34.827 34.827 0 0 1-3.562 1.514 2.636 2.636 0 0 0-1.29.449c-.953.196-1.906.505-2.607.645q-4.375 1.15-8.749 1.907c-1.598.308-2.804.448-4.823.813h-1.963a2.131 2.131 0 0 1-.87 0 1.15 1.15 0 0 0-.672 0h-.309a7.15 7.15 0 0 0-1.962.196 16.825 16.825 0 0 0-2.608 0 34.294 34.294 0 0 1-4.823.225 69.682 69.682 0 0 1-8.693-.505 27.676 27.676 0 0 1-8.412-1.599c-1.29-.364-1.963 1.29-.954 1.599 2.244 1.15 4.795 2.608 7.067 3.561a56.418 56.418 0 0 0 8.103 2.608 67.074 67.074 0 0 0 17.414 1.766 71.028 71.028 0 0 0 19.376-3.73v2.188a3.982 3.982 0 0 1-.308 1.767.393.393 0 0 0-.309.448 1.542 1.542 0 0 1-.364 1.29 6 6 0 0 1-.59 1.318.673.673 0 0 0-.308.505 9.31 9.31 0 0 0-1.317 1.766c-.309 0-.645.645-.954.786a9.562 9.562 0 0 0-1.29 1.15 10.431 10.431 0 0 1-1.318.812 2.103 2.103 0 0 0-.308.309 30.845 30.845 0 0 1-3.197 1.458c-1.01.505-1.963.813-2.972 1.318a6.505 6.505 0 0 1-.954 0 11.777 11.777 0 0 1-1.906.645 39.257 39.257 0 0 1-7.375 1.318 5.44 5.44 0 0 1-1.683.28 5.244 5.244 0 0 1-1.29 0c0 .197 0 .197-.308.197h-1.065a7.15 7.15 0 0 1-1.963.196h-8.413a74.477 74.477 0 0 1-14.805-1.655 26.078 26.078 0 0 1-11.61-4.823c-.644-.645-1.906.449-1.317 1.15a47.67 47.67 0 0 0 9.394 7.43 55.914 55.914 0 0 0 13.852 5.104 107.285 107.285 0 0 0 10.655 1.515 7.263 7.263 0 0 0-2.243 1.766 5.833 5.833 0 0 0-1.598.813 14.441 14.441 0 0 1-1.655.954 13.404 13.404 0 0 0-1.962.785c-.309 0-1.29.505-1.599.505a34.462 34.462 0 0 1-7.487 1.598h-3.14a27.564 27.564 0 0 1-3.87-.196 16.067 16.067 0 0 1-3.87-.449h-.364a13.039 13.039 0 0 1-1.29-.308 13.376 13.376 0 0 1-2.271-.309c-2.608-.813-5.16-1.458-7.936-2.468a44.641 44.641 0 0 1-15.142-7.43c-.673-.59-1.963.673-1.29 1.318 4.57 5.327 9.03 10.992 15.31 14.413a41.725 41.725 0 0 0 42.931-1.655 33.65 33.65 0 0 0 9.03-7.935 10.207 10.207 0 0 1 1.598-2.103 100.546 100.546 0 0 0 8.103-1.907 32.752 32.752 0 0 0 15.816-10.347 22.012 22.012 0 0 0 5.16-16.629 44.865 44.865 0 0 0 6.477-3.841 44.249 44.249 0 0 0 20.554-37.687 53.446 53.446 0 0 0 6.14-6.281 56.082 56.082 0 0 0 12.59-36.818c.337-3.169-3.84-4.318-6.449-2.972zM.017 210.658a56.082 56.082 0 0 0 12.59 36.818 53.446 53.446 0 0 0 6.142 6.309 44.249 44.249 0 0 0 20.75 37.827 44.865 44.865 0 0 0 6.477 3.842 22.012 22.012 0 0 0 5.16 16.628 32.752 32.752 0 0 0 15.815 10.347c2.804.813 5.608 1.402 8.104 1.907a10.207 10.207 0 0 1 1.598 2.103 33.65 33.65 0 0 0 9.03 7.935 41.725 41.725 0 0 0 42.93 1.655c6.281-3.421 10.768-9.057 15.31-14.413.673-.645-.589-1.907-1.29-1.318a44.641 44.641 0 0 1-15.226 7.515c-2.804 1.01-5.328 1.654-7.935 2.467a13.376 13.376 0 0 1-2.272.309 13.039 13.039 0 0 1-1.29.308h-.364a16.067 16.067 0 0 1-3.87.449 27.564 27.564 0 0 1-3.87.196h-3.14a34.462 34.462 0 0 1-7.487-1.598c-.308 0-1.29-.505-1.598-.505a13.404 13.404 0 0 0-1.963-.785 14.441 14.441 0 0 1-1.655-.953 5.833 5.833 0 0 0-1.598-.814 7.263 7.263 0 0 0-2.243-1.766 107.285 107.285 0 0 0 10.655-1.514 55.914 55.914 0 0 0 13.853-5.104 47.67 47.67 0 0 0 9.45-7.515c.588-.673-.674-1.766-1.319-1.15a26.078 26.078 0 0 1-11.609 4.824 74.477 74.477 0 0 1-14.805 1.654h-8.412a7.15 7.15 0 0 1-1.963-.196h-1.655c-.308 0-.308 0-.308-.197a5.244 5.244 0 0 1-1.29 0 5.44 5.44 0 0 1-1.682-.28 39.257 39.257 0 0 1-7.375-1.318 11.777 11.777 0 0 1-1.907-.533 6.505 6.505 0 0 1-.953 0c-1.01-.504-1.963-.813-2.973-1.318a30.845 30.845 0 0 1-3.196-1.458 2.103 2.103 0 0 0-.309-.308 10.431 10.431 0 0 1-1.318-.813 9.562 9.562 0 0 0-1.29-1.15c-.308 0-.645-.645-.953-.785a9.31 9.31 0 0 0-1.318-1.767.673.673 0 0 0-.308-.813 6 6 0 0 1-.59-1.318 1.542 1.542 0 0 1-.364-1.29.393.393 0 0 0-.308-.448 3.982 3.982 0 0 1-.309-1.767v-1.066a71.028 71.028 0 0 0 19.377 3.73 67.074 67.074 0 0 0 17.413-1.767 56.418 56.418 0 0 0 8.104-2.607c2.271-.954 4.823-2.412 7.066-3.562 1.01-.308.309-1.963-.953-1.598a27.676 27.676 0 0 1-8.413 1.598 69.682 69.682 0 0 1-8.692.505 34.294 34.294 0 0 1-4.823-.224 16.825 16.825 0 0 0-2.608 0 7.15 7.15 0 0 0-1.963-.197h-.336a1.15 1.15 0 0 0-.673 0 2.131 2.131 0 0 1-.87 0h-1.963c-1.962-.364-3.224-.504-4.823-.813q-4.374-.757-8.748-1.907c-.673 0-1.655-.448-2.608-.644a2.636 2.636 0 0 0-1.29-.45 34.827 34.827 0 0 1-3.561-1.513c-2.804-1.15-5.608-2.412-8.076-3.702a4.57 4.57 0 0 0-1.29-1.01 5.188 5.188 0 0 0-1.29-.784c-1.318-.814-1.963-1.655-3.28-2.412-1.319-.757-1.907-1.766-3.197-2.804a3 3 0 0 0-.673-.673 4.15 4.15 0 0 0-1.29-1.458c-.673-1.15-1.598-2.271-2.271-3.421a.645.645 0 0 1-.309-.645c-.645-.449-.645-1.094-1.29-1.598a18.45 18.45 0 0 1-1.654-4.066 3.309 3.309 0 0 1-.309-.785 5.608 5.608 0 0 0-.588-1.963v-3a76.72 76.72 0 0 0 16.824 7.598 97.498 97.498 0 0 0 19.236 4.235 74.56 74.56 0 0 0 20.638 0 4.402 4.402 0 0 0 2.636-5.609 5.608 5.608 0 0 0-5.187-3.196c-5.104-.309-10.291 0-15.451-.309a1.318 1.318 0 0 0-.841-.28h-1.655a31.91 31.91 0 0 1-4.206-.841 74.056 74.056 0 0 1-7.43-1.515c-1.599-.308-3.225-.813-4.796-1.29l-2.27-.644a4.178 4.178 0 0 0-.646-.309 2.3 2.3 0 0 0-.673 0c-2.804-1.15-5.832-2.467-8.693-3.926a19.825 19.825 0 0 1-4.234-2.411 1.122 1.122 0 0 1-.645-.309 1.514 1.514 0 0 1-.673-.308 19.937 19.937 0 0 1-1.906-1.29 91.049 91.049 0 0 1-7.039-6.029v-.308a2.552 2.552 0 0 1-.953-.813 16.825 16.825 0 0 0-1.598-1.767 29.022 29.022 0 0 0-2.608-3.365 8.412 8.412 0 0 0-1.29-1.963c0-.196-.673-1.318-.673-1.458-.673-1.318-1.29-2.804-1.963-4.206-.336-.841-.673-1.738-.953-2.411a1.654 1.654 0 0 1-.365-1.15c0-.196-.308-.673-.308-.813a20.133 20.133 0 0 1-.954-4.206 11.216 11.216 0 0 1-.645-3.197 263.08 263.08 0 0 0 39.258 13.684l24.48 6.646c3.925 1.15 7.739 2.27 11.945 3.42 2.271.646 4.234 1.29 6.14 1.907l2.973.954h.617a3.169 3.169 0 0 0 1.654.504 192.725 192.725 0 0 1 22.433 9.843 98.564 98.564 0 0 1 11.216 5.973 116.117 116.117 0 0 1 10.852 7.066 1.514 1.514 0 1 0 1.767-2.412 131.4 131.4 0 0 0-9.562-9.169 77.225 77.225 0 0 0-10.431-7.43 111.154 111.154 0 0 0-21.283-10.797c-15.255-6.337-32.08-10.347-48.175-14.89a241.797 241.797 0 0 1-47.67-17.216c-2.72-1.346-6.87-.197-6.56 2.944z"/></svg>