<svg xmlns="http://www.w3.org/2000/svg" xml:space="preserve" height="600" width="600">
  <path
    d="M169.98 185.798c0 27.61-22.382 49.99-49.99 49.99-27.609 0-49.99-22.38-49.99-49.99 0-27.608 22.381-49.99 49.99-49.99 27.608 0 49.99 22.382 49.99 49.99zm264.232 0c0 27.61 22.382 49.99 49.99 49.99s49.99-22.38 49.99-49.99c0-27.608-22.382-49.99-49.99-49.99-27.61 0-49.99 22.382-49.99 49.99zM155.697 414.323V296.097c0-21.474-17.411-38.885-38.885-38.885h-.786c-21.474 0-38.885 17.41-38.885 38.885v125.368c0 23.666 19.182 42.85 42.849 42.85h64.273c7.89 0 14.282 6.39 14.282 14.282v99.98c0 11.834 9.59 21.423 21.425 21.423h7.141c11.834 0 21.424-9.59 21.424-21.423V457.17c0-23.667-19.182-42.849-42.848-42.849h-49.99zm332.468-157.11h-.785c-21.474 0-38.884 17.41-38.884 38.884v118.226h-49.991c-23.667 0-42.849 19.182-42.849 42.849v118.083c0 13.668 11.077 24.745 24.745 24.745h.5c13.669 0 24.745-11.077 24.745-24.745v-96.659c0-7.891 6.392-14.283 14.284-14.283h64.273c23.666 0 42.848-19.183 42.848-42.85V296.098c-.001-21.474-17.412-38.885-38.886-38.885zm-68.236 107.12V342.91c0-3.941-3.2-7.141-7.141-7.141H191.404a7.144 7.144 0 0 0-7.141 7.141v21.425a7.144 7.144 0 0 0 7.14 7.141h221.385c3.941 0 7.14-3.2 7.14-7.141zM282.82 0c-52.06 0-94.259 33.4-94.259 74.6 0 24.545 15.047 46.254 38.164 59.852-2.265 12.397-9.463 27-19.525 37.064 24.581-1.836 46.212-8.884 60.38-23.381 4.978.643 10.048 1.064 15.248 1.064 52.06 0 94.259-33.401 94.259-74.6C377.088 33.401 334.875 0 282.82 0Zm-44.19 89.325c-8.134 0-14.725-6.59-14.725-14.725 0-8.133 6.59-14.726 14.725-14.726 8.133 0 14.725 6.593 14.725 14.726 0 8.134-6.592 14.725-14.725 14.725zm44.191 0c-8.135 0-14.726-6.59-14.726-14.725 0-8.133 6.591-14.726 14.726-14.726 8.134 0 14.725 6.593 14.725 14.726 0 8.134-6.59 14.725-14.725 14.725zm44.184 0c-8.134 0-14.725-6.59-14.725-14.725 0-8.133 6.59-14.726 14.725-14.726 8.133 0 14.724 6.593 14.724 14.726 0 8.134-6.59 14.725-14.724 14.725z" />
  </svg>
