<svg xmlns="http://www.w3.org/2000/svg" height="600" width="600" xml:space="preserve">
  <path
    d="M512.133 87.867C455.469 31.205 380.133 0 300 0 219.867 0 144.53 31.205 87.867 87.867 31.205 144.531 0 219.867 0 300c0 80.133 31.205 155.47 87.867 212.133C144.53 568.795 219.867 600 300 600c80.133 0 155.47-31.205 212.133-87.867C568.795 455.47 600 380.133 600 300c0-80.133-31.206-155.47-87.867-212.133Zm-207.885-69.49c73.649 1.082 142.729 30.25 194.926 82.448 48.422 48.423 77.035 111.371 81.787 179.018l-46.414-38.678-48.067 40.055c-9.31-93.143-87.1-166.411-182.143-168.582l-39.32-47.184ZM469.093 300c0 93.238-75.854 169.093-169.093 169.093-93.24 0-169.093-75.855-169.093-169.093 0-93.238 75.855-169.093 169.093-169.093 93.238 0 169.093 75.855 169.093 169.093zM100.826 100.826c48.422-48.42 111.37-77.035 179.017-81.787l-38.678 46.414 40.055 48.067c-93.143 9.31-166.411 87.1-168.582 182.143l-47.184 39.32-47.077-39.231c1.082-73.648 30.25-142.727 82.449-194.926Zm194.926 480.798c-73.649-1.083-142.729-30.251-194.926-82.449-48.422-48.423-77.035-111.371-81.787-179.018l46.414 38.678 48.067-40.055c9.31 93.145 87.1 166.411 182.143 168.583l39.32 47.183zm203.422-82.45c-48.422 48.42-111.37 77.035-179.017 81.787l38.678-46.414-40.055-48.067c93.145-9.31 166.411-87.1 168.583-182.143l47.183-39.32 47.077 39.231c-1.082 73.648-30.25 142.727-82.449 194.926z">

  </path>
  <animateTransform attributeName="transform" type="rotate" from="0 0 0" to="-90 0 0" dur="1s" repeatCount="1" />
  </svg>
