<svg xmlns="http://www.w3.org/2000/svg" height="600" width="600" xml:space="preserve"><path d="M516.843 0H93.133C80.358 0 70 10.358 70 23.134V350.12l82.598-97.464a23.134 23.134 0 0 1 28.147-5.66l123.782 63.048 87.944-48.783a23.133 23.133 0 0 1 28.272 4.595L539.978 395.87V23.134C539.978 10.358 529.62 0 516.843 0Zm-77.111 203.132H170.246c-12.776 0-23.134-10.358-23.134-23.134v-79.751c0-12.776 10.358-23.134 23.134-23.134h269.483c12.776 0 23.134 10.358 23.134 23.134V180h.001c0 12.775-10.357 23.132-23.132 23.132z" style="fill:#000;fill-opacity:1;stroke-width:1.17187"/><path d="M316.21 356.473a23.133 23.133 0 0 1-21.72.385l-118.43-60.323L70 421.685v155.181C70 589.642 80.358 600 93.134 600h423.71c12.775 0 23.133-10.358 23.133-23.134v-112.54l-141.01-153.759Zm-13.33 162.525H170.245c-12.776 0-23.134-10.358-23.134-23.134s10.358-23.134 23.134-23.134h132.633c12.776 0 23.134 10.358 23.134 23.134 0 12.778-10.356 23.134-23.134 23.134zm0-68.618H170.245c-12.776 0-23.134-10.358-23.134-23.134s10.358-23.134 23.134-23.134h132.633c12.776 0 23.134 10.358 23.134 23.134s-10.356 23.134-23.134 23.134z" style="fill:#000;fill-opacity:1;stroke-width:1.17187"/></svg>