<svg xmlns="http://www.w3.org/2000/svg" xml:space="preserve" height="600" width="600"><path style="stroke-width:10.274" d="M503.98 0H96.02c-.8 0-1.582.216-2.404.226v37.007H74.394V2.63C31.88 12.473 0 50.425 0 95.99v407.959c0 45.565 31.829 83.527 74.394 93.37v-34.593h19.222v37.017c.802.02 1.583.226 2.425.226h407.97c53.003 0 95.989-42.986 95.989-95.99V96.01C599.98 42.986 556.993 0 503.98 0ZM93.615 514.921H74.394v-47.753h19.222zm0-95.517H74.394V371.64h19.222zm0-95.558H74.394v-47.754h19.222zm0-95.497H74.394v-47.763h19.222zm0-95.537H74.394V85.048h19.222Zm222.37 313.263a23.466 23.466 0 0 1-23.496 23.476h-22.963l-.503 35.805-34.829-35.805h-41.589a23.486 23.486 0 0 1-23.517-23.476V385.51a23.486 23.486 0 0 1 23.517-23.476h99.884a23.466 23.466 0 0 1 23.496 23.476zM550.46 279.092a46.182 46.182 0 0 1-46.161 46.192h-81.935L354 395.64l-.986-70.356H307.92a46.182 46.182 0 0 1-46.181-46.192V160.11a46.171 46.171 0 0 1 46.181-46.172h196.367a46.171 46.171 0 0 1 46.16 46.172v118.982z"/></svg>