<svg xmlns="http://www.w3.org/2000/svg" height="600" width="600" xml:space="preserve"><path d="M300.129 250.946a8.802 8.802 0 0 0 0 17.604c.324 0 .587.263.587.587a8.802 8.802 0 0 0 17.604 0c0-10.03-8.16-18.19-18.191-18.19z"/><path d="M599.699 268.442a8.802 8.802 0 0 0-8.775-8.107h-.468c-.483-14.978-2.531-32.143-9.865-50.757a8.79 8.79 0 0 0-8.78-5.556c-180.274 12.125-363.091 12.125-543.366 0-4.036-.287-7.727 2.236-8.967 6.08-5.428 16.824-8.683 34.01-9.563 50.233h-.838a8.803 8.803 0 0 0-8.775 8.106c-.167 2.11-3.826 52.163 19.613 98.387l.043.083.051.105c.014.028.034.051.048.08.161.308.34.605.537.89.037.056.074.113.112.168.208.288.431.562.67.823.068.073.138.14.207.211.194.196.394.384.606.561.071.061.14.125.215.183.268.213.549.407.841.587.07.043.142.081.214.122a8.4 8.4 0 0 0 .802.41c.06.028.118.057.178.082.333.14.676.263 1.028.361.04.012.082.02.123.03a9.175 9.175 0 0 0 1.185.23c.35.043.704.074 1.065.074h.02c.024 0 .048-.003.071-.004.17-.001.34-.006.512-.018 68.368-4.598 137.694-7.464 206.29-8.575l-.344.83a8.8 8.8 0 0 0 1.908 9.593 8.798 8.798 0 0 0 9.592 1.908l16.402-6.794 6.794 16.402a8.802 8.802 0 0 0 16.264 0l9.312-22.481c3.218-.004 6.437-.003 9.657 0l9.312 22.481a8.802 8.802 0 0 0 16.264 0l6.794-16.402 16.402 6.794a8.801 8.801 0 0 0 11.5-11.5l-.353-.85c68.786 1.092 138.317 3.952 206.89 8.552.349.042.699.066 1.047.066.03 0 .06-.006.09-.006.047.001.096.005.143.005 4.045 0 7.527-2.768 8.512-6.605 22.513-45.77 18.945-94.695 18.78-96.782zm-26.857-8.107H355.174c-1.83-11.481-7.181-21.797-14.903-29.821 75.558-.74 151.053-3.566 226.119-8.489 4.567 13.755 6.038 26.711 6.452 38.31zm-272.713 46.944c-21.03 0-38.142-17.111-38.142-38.142 0-21.031 17.111-38.142 38.142-38.142 21.03 0 38.142 17.111 38.142 38.142 0 21.03-17.11 38.142-38.142 38.142zm-265.884-85.23c74.942 4.91 150.312 7.725 225.745 8.465-7.723 8.023-13.074 18.338-14.904 29.82H27.565c.744-12.35 2.991-25.343 6.68-38.284zm-1.033 131.814c-13.701-29.936-15.549-61.465-15.572-75.924h227.445c1.703 10.687 6.456 20.364 13.332 28.123l-16.338 39.442a4086.286 4086.286 0 0 0-208.867 8.36zm241.98.037c-1.86-4.492-7.01-6.623-11.5-4.764l-4.903 2.03 13.893-33.54a55.34 55.34 0 0 0 15.434 5.937l1.85 4.468-12.744 30.77zm60.104-4.764a8.802 8.802 0 0 0-11.5 4.764l-2.03 4.902-12.746-30.77 1.73-4.176a55.308 55.308 0 0 0 15.797-5.644l13.65 32.954zm5.673-42.11c7.348-7.913 12.43-17.953 14.204-29.087h227.2c-.005 14.433-1.824 45.885-15.542 75.91a4085.566 4085.566 0 0 0-209.933-8.366z"/></svg>