<svg xmlns="http://www.w3.org/2000/svg" height="600" width="600" xml:space="preserve"><path style="stroke-width:1.28424" d="M584.26 155.265 466.495 5.908C463.54 2.183 459.175 0 454.423 0H145.176c-4.751 0-9.118 2.183-12.072 5.908L15.34 155.265c-2.184 2.697-3.34 6.036-3.34 9.505v419.82c0 8.475 6.935 15.41 15.411 15.41H572.06c8.476 0 15.41-6.935 15.41-15.411v-419.82c.13-3.468-1.027-6.807-3.21-9.504zm-41.866-3.339H315.21V30.822h131.763ZM152.625 30.822h131.764v121.104H57.205ZM42.822 569.178v-386.43h513.827v386.43z"/><path style="stroke-width:1.28424" d="m361.957 400.428-46.875 46.875V271.747c0-8.476-6.935-15.411-15.41-15.411-8.477 0-15.412 6.935-15.412 15.41v175.557l-46.618-46.618c-6.036-6.036-15.796-6.036-21.832 0-6.036 6.036-6.036 15.796 0 21.832l72.945 72.945 1.028 1.028c.128.128.256.128.385.257.257.256.642.513.899.642.128 0 .128.128.257.128.385.257.642.385 1.027.642.128 0 .128 0 .257.129.385.257.77.385 1.156.513h.128c.385.129.9.386 1.284.514h.129c.385.128.899.257 1.284.385h.385c.386 0 .77.129 1.156.129.514 0 1.028.128 1.541.128.514 0 1.028 0 1.541-.128.386 0 .77-.129 1.156-.129h.385c.514-.128.9-.257 1.285-.385h.128c.385-.128.9-.257 1.284-.514h.129c.385-.128.77-.385 1.156-.513 0 0 .128 0 .128-.129.385-.128.642-.385 1.027-.642.129 0 .129-.128.257-.128.257-.257.642-.386.9-.642.128-.129.256-.129.256-.257.385-.257.77-.642 1.027-1.028l73.203-73.202c6.036-6.036 6.036-15.796 0-21.832-5.78-6.036-15.54-6.036-21.576 0z"/></svg>