<svg xmlns="http://www.w3.org/2000/svg" width="600" height="600" viewBox="0 0 158.75 158.75"><g style="opacity:1;fill:#000;fill-opacity:1"><path transform="translate(-206.371 -298.9) scale(2.24999)" style="fill:#000;fill-opacity:1;stroke-width:.352778" d="M130.583 177.296c0-.485.08-.683.178-.44.098.242.098.638 0 .881-.097.243-.178.044-.178-.441z"/><path transform="translate(-206.371 -298.9) scale(2.24999)" style="fill:#000;fill-opacity:1;stroke-width:.352778" d="m91.725 192.898.002-3.078 2.732-.806c6.12-1.805 6.514-1.814 11.125-.266 3.352 1.125 4.244 1.12 7.595-.049 1.862-.649 3.425-.944 5.002-.944 1.576 0 3.14.295 5 .944 1.49.52 3.208.944 3.819.944.61 0 2.329-.425 3.818-.944 1.862-.649 3.425-.944 5.001-.944 1.577 0 3.14.295 5.001.944 3.352 1.169 4.244 1.174 7.596.05 4.611-1.549 5.005-1.54 11.125.265l2.732.806.002 3.078.002 3.078-1.147-.204c-.63-.113-2.284-.585-3.675-1.05-3.239-1.083-4.833-1.065-8.172.092-1.654.573-3.459.937-4.645.937-1.186 0-2.991-.364-4.645-.937-3.397-1.177-4.952-1.177-8.349 0-1.654.573-3.459.937-4.645.937-1.186 0-2.991-.364-4.645-.937-3.397-1.177-4.951-1.177-8.348 0-1.654.573-3.46.937-4.646.937s-2.991-.364-4.645-.937c-3.339-1.157-4.933-1.175-8.172-.092-1.39.465-3.045.937-3.675 1.05l-1.147.204zm14.461-7.7c-.679-.295-1.973-.695-2.875-.89-2.153-.463-2.57-1.545-.87-2.255l1.143-.478-.353-2.14a13 13 0 0 1 .002-4.292l.356-2.153-1.152-.549-1.152-.55.521-1.248c.687-1.643.658-1.627 1.94-1.096.998.414 1.148.392 1.487-.213.617-1.103 3.478-4.026 4.57-4.669 1.013-.596 1.098-1.082.454-2.609-.196-.464.051-.726 1.094-1.162 1.254-.524 1.379-.52 1.795.05.247.336.448.78.448.986 0 .245 1.587.374 4.583.374l4.582-.001.338-.97c.398-1.14.324-1.126 2.123-.406 1.403.561 1.407.568.889 1.57-.286.553-.52 1.08-.52 1.17 0 .09.786.74 1.746 1.446.96.705 2.33 2.077 3.044 3.049.943 1.284 1.453 1.702 1.87 1.53 1.594-.66 1.805-.6 2.336.672.686 1.642.691 1.62-.441 2.015l-.97.338.037 4.458c.037 4.446.04 4.459.97 4.946.513.27.93.603.927.743-.013.604-.605 1.096-1.585 1.314-.58.13-2.039.574-3.24.988-2.324.8-3.064.66-2.105-.399.322-.356.586-.817.586-1.025 0-.33-4.362-2.352-6.62-3.068l-.798-.254.733 1.86c.403 1.022.811 1.986.907 2.142.223.36.163.357-1.932-.092-1.437-.308-1.824-.56-2.177-1.411-.538-1.3-.794-1.303-1.28-.017-.317.84-.687 1.085-2.101 1.387-.944.2-1.764.318-1.822.26-.058-.058.224-.94.626-1.961.402-1.02.672-1.915.6-1.987-.136-.136-6.933 2.558-7.249 2.873-.099.1.17.655.599 1.235l.78 1.054-.805-.014c-.442-.008-1.36-.255-2.04-.55zm3.992-6.314c1.879-.777 3.416-1.512 3.416-1.635 0-.122-1.617-.876-3.594-1.676-2.722-1.1-3.663-1.345-3.876-1.011-.332.524-.386 4.545-.07 5.366.12.315.329.526.463.47.134-.057 1.781-.738 3.66-1.514zm20.448-1.77c-.01-1.472-.109-2.768-.22-2.88-.111-.11-1.875.485-3.92 1.325s-3.6 1.645-3.454 1.79c.641.638 6.994 3.038 7.289 2.753.177-.17.314-1.515.305-2.988zm-15.62-3.258c.002-.789-2.968-7.143-3.34-7.143-.472 0-4.07 3.65-4.066 4.124.002.157 1.55.944 3.44 1.748 3.741 1.592 3.965 1.664 3.966 1.271zm10.495-1.34c1.886-.774 3.263-1.543 3.263-1.824 0-.627-3.346-3.98-3.971-3.98-.395 0-1.336 1.97-3.36 7.03-.132.332-.03.435.302.306.277-.108 1.97-.797 3.766-1.533zm-5.569-3.52c.836-2.043 1.435-3.8 1.33-3.905-.263-.263-5.426-.26-5.853.003-.388.24 2.42 7.616 2.9 7.616.056 0 .787-1.671 1.623-3.714zm20.826 15.976c-1.067-.41-2-.79-2.072-.844-.073-.055.125-.745.44-1.533.316-.788.574-1.564.574-1.725 0-.16-.635-.578-1.411-.928l-1.411-.636v-4.132l1.41-.565c.777-.31 1.412-.744 1.412-.963 0-.22-.821-2.359-1.825-4.754-1.696-4.044-1.884-4.34-2.646-4.149l-1.614.404c-.606.151-1.122-.138-2.176-1.221l-1.381-1.42.57-1.452.57-1.451-2.01-.892c-2.818-1.248-7.089-2.934-7.435-2.934-.16 0-.54.635-.845 1.41l-.554 1.412h-4.214l-.564-1.411c-.31-.776-.727-1.411-.926-1.411-.362 0-8.866 3.477-9.136 3.736-.079.075.102.763.403 1.528l.546 1.39-1.483 1.549-1.483 1.547-1.485-.63-1.485-.631-.56 1.4-.56 1.4h-5.025l1.051-1.029c1.942-1.899 31.334-27.547 31.569-27.547.127 0 2.838 2.29 6.024 5.09l5.792 5.088.103-2.62.103-2.619h9.127l.096 6.777.096 6.776 5.615 4.953 5.615 4.954-3.763.1-3.763.1v16.896l-.97.207c-.534.114-1.818.514-2.854.89-2.408.87-5.01.833-7.465-.11z"/></g></svg>