<svg xmlns="http://www.w3.org/2000/svg" fill="none" height="600" width="600"><path style="stroke:#fff;stroke-opacity:1;stroke-width:20;stroke-miterlimit:4;stroke-dasharray:none" stroke-linecap="round" stroke-width="4" stroke="#000" d="M437.5 332.674 189.329 91.424c-14.494-14.088-37.664-13.76-51.752.732a35.968 35.968 0 0 0-1.486 1.623c-14.287 16.584-13.306 41.396 2.245 56.8l125.301 124.125"/><path style="stroke:#fff;stroke-opacity:1;stroke-width:20;stroke-miterlimit:4;stroke-dasharray:none" stroke-linejoin="round" stroke-linecap="round" stroke-width="4" stroke="#000" d="m263.636 274.702-136.42-135.267c-16.172-16.036-41.965-16.913-59.19-2.014-15.832 13.695-17.564 37.633-3.869 53.465.52.6 1.057 1.184 1.614 1.751l137.42 140.035"/><path style="stroke:#fff;stroke-opacity:1;stroke-width:20;stroke-miterlimit:4;stroke-dasharray:none" stroke-linecap="round" stroke-width="4" stroke="#000" d="M203.191 332.673 125 256.25c-15.78-16.121-41.585-16.57-57.915-1.005-16.154 15.398-16.768 40.977-1.37 57.132l.214.22c115.37 119.207 175.246 175.51 197.708 194.32C300 537.373 371.69 550.002 409.131 525.002c37.443-25 71.285-60.57 87.348-95.891 9.562-21.027 28.136-85.865 55.72-194.51 5.615-22.116-7.763-44.597-29.879-50.212a41.106 41.106 0 0 0-.861-.21c-22.915-5.295-45.92 8.468-52.085 31.165L437.5 332.673m-41.051-174.348a244.946 244.946 0 0 0-30.34-36.931 244.953 244.953 0 0 0-36.931-30.34 243.63 243.63 0 0 0-20.507-12.316 242.608 242.608 0 0 0-21.62-10.243M64.925 422.204A244.973 244.973 0 0 0 93.29 460.67a245 245 0 0 0 35.293 32.231 243.73 243.73 0 0 0 19.833 13.373 242.714 242.714 0 0 0 21.054 11.36"/></svg>