<svg xmlns="http://www.w3.org/2000/svg" xml:space="preserve" width="600" height="600"><path style="fill:#fff;fill-opacity:1" d="M329.812 0c-35.1 0-68.228 7.882-97.908 21.921C153.578 58.252 99.39 137.441 99.39 229.437v38.055l-46.676 89.163c-11.822 22.537-.615 40.887 24.754 40.887H99.39v84.73c0 26.479 21.675 48.154 48.153 48.154l66.134-9.853.123 66.134v.493c.37 8.498 7.513 14.04 16.38 12.562l238.304-42.12c8.99-1.6 16.379-10.344 16.379-19.457v-140.15c45.69-41.873 74.262-102.095 74.262-168.845C559.002 102.588 456.415 0 329.812 0Zm116.996 348.034c-55.05 55.05-139.04 63.794-203.204 25.986l-.37-.247c-25.246 19.09-52.34 22.415-71.183 19.459-6.28-.985-7.636-9.483-1.847-12.316 17.241-8.497 28.202-25.37 34.483-39.04l-1.724-1.354c-58.252-65.765-55.912-166.382 7.02-229.314 65.394-65.395 171.43-65.395 236.825 0 65.395 65.395 65.395 171.431 0 236.826z"/><path style="fill:#fff;fill-opacity:1" d="M335.23 181.16c14.779.123 26.971-12.192 27.094-27.34.124-15.271-11.946-27.587-26.97-27.71-15.148-.123-27.34 12.07-27.464 27.217-.123 15.271 12.193 27.71 27.34 27.833zm32.76 123.77c-2.71.985-5.05 2.833-7.636 3.941-3.325 1.232-6.65 2.463-10.222 2.833-4.187.492-7.143-1.725-8.251-5.912-.74-3.079-1.232-6.28-.862-9.36.739-6.527 2.093-12.93 3.202-19.335 3.571-19.458 7.143-38.916 10.591-58.375.985-5.296 1.847-10.591 1.724-15.887-.123-6.404-3.94-9.36-10.345-9.36h-51.725c-2.093 0-4.187.124-6.28.493-3.818.739-5.789 2.586-6.035 5.665-.37 2.833 1.232 5.542 4.803 6.774 2.833.985 5.911 1.231 8.99 1.724 7.02.985 9.237 3.448 9.237 10.591 0 1.109-.123 2.217-.246 3.325-2.956 16.996-6.035 34.114-8.868 51.11-1.6 9.852-3.202 19.58-4.556 29.433-1.97 14.41 11.946 27.956 22.783 29.434 6.527.985 13.3 1.109 19.951 1.109 14.286-.124 26.109-6.158 36.084-16.257 1.725-1.724 3.203-4.187 3.818-6.527 1.109-4.31-2.217-7.02-6.157-5.419z"/></svg>