<svg xmlns="http://www.w3.org/2000/svg" height="600" width="600" xml:space="preserve"><path style="stroke-width:10" d="M495.54 0H310v160h285.54ZM290 0H104.46l-100 160H290ZM0 180v420h600V180Zm227.07 257.07a9.97 9.97 0 0 1-14.14 0 9.99 9.99 0 0 1 0-14.14l29.99-29.99a10.01 10.01 0 0 1 14.16 0l29.99 29.99a9.998 9.998 0 1 1-14.14 14.14L260 424.14V490a10 10 0 1 1-20 0v-65.86ZM380 540H220a10 10 0 1 1 0-20h160a10 10 0 1 1 0 20zm7.07-102.93a9.97 9.97 0 0 1-14.14 0L360 424.14V490a10 10 0 1 1-20 0v-65.86l-12.93 12.93a9.97 9.97 0 0 1-14.14 0 9.99 9.99 0 0 1 0-14.14l29.99-29.99a10.01 10.01 0 0 1 14.16 0l29.99 29.99a9.99 9.99 0 0 1 0 14.14zM360 290H240c-16.54 0-30-13.46-30-30s13.46-30 30-30h120c16.54 0 30 13.46 30 30s-13.46 30-30 30z"/></svg>