<svg xmlns="http://www.w3.org/2000/svg" height="600.224" width="600" data-name="Calque 1"><path style="stroke-width:5.12339" d="M600 229.496a9.478 9.478 0 0 0-.41-2.05 10.247 10.247 0 0 0-.563-1.741 8.966 8.966 0 0 0-1.025-1.537 9.427 9.427 0 0 0-1.332-1.537s0-.308-.41-.462l-96.166-74.699V70.005a30.023 30.023 0 0 0-30.023-30.023H361.66L318.265 6.27a29.664 29.664 0 0 0-36.479 0L238.34 39.982H129.93a30.023 30.023 0 0 0-30.024 30.023v77.465L3.74 222.17s0 .307-.41.46a9.376 9.376 0 0 0-1.332 1.538 8.915 8.915 0 0 0-1.025 1.537 9.888 9.888 0 0 0-.563 1.741 9.478 9.478 0 0 0-.41 1.999v340.807a29.664 29.664 0 0 0 5.892 17.676 2.51 2.51 0 0 0 0 .256l.307.256a29.87 29.87 0 0 0 23.67 11.784h540.262a29.87 29.87 0 0 0 23.72-11.835h.257v-.256A29.664 29.664 0 0 0 600 570.457ZM293.98 22.1a9.58 9.58 0 0 1 11.938 0l23.055 17.932h-57.997ZM32.38 580.243l261.6-203.194a9.58 9.58 0 0 1 11.938 0l261.65 203.194Zm547.741-15.37L318.265 361.269a29.664 29.664 0 0 0-36.479 0L19.88 564.617v-319.29l163.948 127.316a10.247 10.247 0 0 0 12.245-15.83L29.511 227.497l70.395-54.718v77.312a10.247 10.247 0 1 0 20.033 0V70.005a10.247 10.247 0 0 1 10.246-10.247h339.886a10.247 10.247 0 0 1 10.247 10.247v180.087a10.247 10.247 0 1 0 20.032 0V172.78l70.14 54.718-166.87 129.519a10.247 10.247 0 1 0 12.245 15.831l164.256-127.52v319.289z"/><path style="fill:#ca1a1a;stroke-width:5.12339" d="M420.015 240.101v-40.27a120.041 120.041 0 1 0-120.04 120.298 10.247 10.247 0 1 0 0-20.033 100.06 100.06 0 1 1 100.06-100.265v40.014a20.032 20.032 0 1 1-40.015 0v-40.014a10.247 10.247 0 1 0-20.032 0 40.014 40.014 0 1 1-40.014-40.013 10.247 10.247 0 1 0 0-20.033 60.046 60.046 0 1 0 40.424 104.261 39.911 39.911 0 0 0 79.617-3.945z"/></svg>
