<?xml version="1.0" encoding="UTF-8" standalone="no"?>
<svg
   xmlns:dc="http://purl.org/dc/elements/1.1/"
   xmlns:cc="http://creativecommons.org/ns#"
   xmlns:rdf="http://www.w3.org/1999/02/22-rdf-syntax-ns#"
   xmlns:svg="http://www.w3.org/2000/svg"
   xmlns="http://www.w3.org/2000/svg"
   xmlns:sodipodi="http://sodipodi.sourceforge.net/DTD/sodipodi-0.dtd"
   xmlns:inkscape="http://www.inkscape.org/namespaces/inkscape"
   inkscape:version="1.0beta1 (fe3e306, 2019-09-17)"
   sodipodi:docname="people-pptx.svg"
   id="svg837"
   version="1.1"
   xml:space="preserve"
   width="9000"
   height="4600">
  <metadata
   id="metadata843">
    <rdf:RDF>
      <cc:Work
   rdf:about="">
        <dc:format>image/svg+xml</dc:format>


        <dc:type
   rdf:resource="http://purl.org/dc/dcmitype/StillImage" />


      <dc:title></dc:title>
</cc:Work>


    </rdf:RDF>


  </metadata>


  <defs
   id="defs841">
    <rect
   id="rect869"
   height="83.113457"
   width="130.60686"
   y="1211.0818"
   x="5402.3745" />


  </defs>


  <sodipodi:namedview
   inkscape:current-layer="svg837"
   inkscape:window-maximized="0"
   inkscape:window-y="23"
   inkscape:window-x="0"
   inkscape:cy="2285.1823"
   inkscape:cx="4500"
   inkscape:zoom="0.12282609"
   showgrid="false"
   id="namedview839"
   inkscape:window-height="755"
   inkscape:window-width="1280"
   inkscape:pageshadow="2"
   inkscape:pageopacity="0"
   guidetolerance="10"
   gridtolerance="10"
   objecttolerance="10"
   borderopacity="1"
   inkscape:document-rotation="0"
   bordercolor="#666666"
   pagecolor="#ffffff" />


  <g
   transform="translate(-52.08445,-1015.0607)"
   id="g895">
    <path
   d="m 4495.38,1141.522 h 0.2 c 40.4,-0.4 34.5,-54.4 34.5,-54.4 -1.6,-36.1 -31.7,-35.8 -34.7,-35.7 -3,-0.1 -33.1,-0.4 -34.8,35.6 0,0 -5.9,54 34.6,54.4 0,0.1 0.1,0.1 0.2,0.1 z m 0,67.1 26.1,-36 c 0,0 18.4,7.4 33.4,18.5 3.9,2.9 5.7,4.6 9.2,8.1 8.3,8.3 4.8,56.4 0,74 -4.8,17.6 -18.9,42.9 -18.9,42.9 -2.8,6.4 -4.6,13.3 -5.3,20.2 l -18,176.5 c -0.6,5.6 -5.3,9.9 -10.9,9.9 h -31.2 c -5.6,0 -10.4,-4.3 -10.9,-9.9 l -18,-176.5 c -0.7,-7 -2.5,-13.8 -5.3,-20.2 0,0 -14.1,-25.2 -18.9,-42.9 -4.8,-17.6 -8.3,-65.7 0,-74 3.5,-3.5 5.3,-5.2 9.2,-8.1 15,-11 33.4,-18.5 33.4,-18.5 z"
   style="fill:#94a4a4"
   id="path833"
   inkscape:connector-curvature="0" />


    <path
   d="m 4292.38,1291.122 c 4.5,16.4 16.5,38.5 18.3,41.9 2.2,5.1 3.6,10.4 4.1,15.9 l 16.9,165.6 c 1,9.9 9.3,17.4 19.3,17.4 h 29.2 c 10,0 18.3,-7.5 19.3,-17.4 l 16.9,-165.6 c 0.6,-5.6 2,-11.1 4.3,-16.2 2,-4.6 -0.1,-9.9 -4.6,-11.9 -4.6,-2 -9.9,0.1 -11.9,4.6 -3,6.9 -5,14.2 -5.7,21.7 l -16.9,165.6 c -0.1,0.6 -0.6,1.1 -1.2,1.1 h -29.2 c -0.6,0 -1.2,-0.5 -1.2,-1.1 l -17.1,-165.7 c -0.8,-7.5 -2.7,-14.8 -5.7,-21.7 -0.1,-0.3 -0.2,-0.5 -0.4,-0.8 -0.1,-0.2 -12.7,-22.9 -16.9,-38.2 -4.6,-17.1 -5.9,-54.3 -2.1,-60.9 3,-3 4.3,-4.2 7.4,-6.5 7.9,-5.8 17,-10.5 22.9,-13.3 l 20.2,27.8 c 1.7,2.3 4.4,3.7 7.3,3.7 2.9,0 5.6,-1.4 7.3,-3.7 l 24.5,-33.7 c 2.9,-4 2,-9.7 -2,-12.7 -4,-2.9 -9.7,-2 -12.7,2 l -17.2,23.6 -17,-23.5 c -2.4,-3.4 -6.9,-4.6 -10.7,-3.1 -0.7,0.3 -18.5,7.5 -33.3,18.4 -4.2,3.1 -6.2,5 -9.7,8.5 -12.8,12.8 -5.7,66 -2.4,78.2 z m 72.4,-116.9 h 1.7 c 11.6,-0.3 21.4,-4.5 28.4,-12.4 14.9,-16.8 12.8,-44.8 12.4,-48.3 -1.5,-30.9 -23,-41.8 -40.9,-41.8 h -1.6 c -17.9,0 -39.3,11 -40.9,41.8 -0.3,3.5 -2.5,31.5 12.4,48.3 7.1,7.9 16.9,12.2 28.5,12.4 z m -22.8,-59.1 v -0.6 c 1,-21.6 14.7,-24.8 22.8,-24.8 h 1.5 c 8.1,0 21.8,3.2 22.8,24.8 v 0.5 c 0.7,6.4 0.5,25.1 -8,34.7 -3.7,4.2 -8.8,6.3 -15.5,6.3 h -0.2 c -6.7,-0.1 -11.8,-2.1 -15.5,-6.3 -8.4,-9.5 -8.5,-28.2 -7.9,-34.6 z m 232.8,205.6 c -4.6,2 -6.7,7.4 -4.6,11.9 2.3,5.2 3.7,10.6 4.3,16.2 l 16.9,165.6 c 1,9.9 9.3,17.4 19.3,17.4 h 29.2 c 10,0 18.3,-7.5 19.3,-17.4 l 16.9,-165.6 c 0.6,-5.5 1.9,-10.8 4.1,-15.9 1.8,-3.3 13.9,-25.4 18.3,-41.9 3.3,-12.2 10.5,-65.4 -2.3,-78.2 -3.5,-3.5 -5.5,-5.4 -9.7,-8.5 -14.8,-10.9 -32.5,-18.1 -33.3,-18.4 -3.9,-1.6 -8.3,-0.3 -10.7,3.1 l -17.2,23.6 -17.3,-23.5 c -2.9,-4.1 -8.6,-4.9 -12.7,-2 -4,2.9 -4.9,8.6 -2,12.7 l 24.5,33.7 c 1.7,2.3 4.4,3.7 7.3,3.7 2.9,0 5.6,-1.4 7.3,-3.7 l 20.2,-27.8 c 5.9,2.8 15,7.5 22.9,13.3 3,2.2 4.3,3.5 7.4,6.5 3.8,6.6 2.5,43.8 -2.1,60.9 -4.2,15.3 -16.8,38 -16.9,38.2 -0.1,0.2 -0.3,0.5 -0.4,0.8 -3,6.9 -5,14.2 -5.7,21.7 l -16.9,165.6 c -0.1,0.6 -0.6,1.1 -1.2,1.1 h -29.2 c -0.6,0 -1.2,-0.5 -1.2,-1.1 l -16.9,-165.6 c -0.8,-7.5 -2.7,-14.8 -5.7,-21.7 -2,-4.7 -7.3,-6.7 -11.9,-4.7 z m 49.5,-146.5 h 1.7 c 11.6,-0.2 21.4,-4.5 28.5,-12.4 14.9,-16.8 12.8,-44.8 12.4,-48.3 -1.5,-30.9 -22.9,-41.8 -40.9,-41.8 h -1.6 c -17.9,0 -39.3,11 -40.9,41.8 -0.3,3.5 -2.5,31.5 12.4,48.3 7,7.9 16.8,12.1 28.4,12.4 z m -22.8,-59.1 v -0.6 c 1,-21.6 14.7,-24.8 22.8,-24.8 h 1.5 c 8.1,0 21.8,3.2 22.8,24.8 v 0.5 c 0.7,6.4 0.5,25.1 -8,34.7 -3.7,4.2 -8.8,6.2 -15.5,6.3 h -0.2 c -6.7,-0.1 -11.8,-2.1 -15.5,-6.3 -8.4,-9.5 -8.5,-28.2 -7.9,-34.6 z m -181.2,77.7 c -13.5,13.5 -5.9,69.8 -2.3,82.8 4.8,17.5 17.6,41.1 19.5,44.5 2.4,5.5 3.9,11.2 4.5,17.1 l 18,176.5 c 1,10.3 9.6,18 20,18 h 31.1 c 10.3,0 18.9,-7.8 20,-18 l 18,-176.5 c 0.6,-5.9 2.1,-11.7 4.5,-17.1 1.9,-3.5 14.7,-27 19.5,-44.5 3.5,-13 11.2,-69.3 -2.3,-82.8 -3.7,-3.7 -5.8,-5.7 -10.2,-9 -15.7,-11.6 -34.6,-19.2 -35.4,-19.6 -3.9,-1.6 -8.3,-0.3 -10.7,3.1 l -19.1,25.9 -18.8,-25.9 c -2.4,-3.4 -6.9,-4.6 -10.7,-3.1 -0.8,0.3 -19.6,8 -35.4,19.6 -4.4,3.3 -6.6,5.3 -10.2,9 z m 13,12.6 c 3.3,-3.3 4.7,-4.6 8,-7 8.6,-6.4 18.6,-11.5 25,-14.5 l 21.8,30 c 1.7,2.3 4.4,3.7 7.3,3.7 2.9,0 5.6,-1.4 7.3,-3.7 l 21.8,-30 c 6.3,3 16.3,8.1 25,14.5 3.3,2.4 4.7,3.7 8,7 4.2,6.8 2.9,46.9 -2.2,65.4 -4.5,16.4 -17.9,40.6 -18.1,40.8 -0.1,0.2 -0.3,0.5 -0.4,0.8 -3.2,7.3 -5.3,15 -6.1,23 l -18,176.5 c -0.1,1 -0.9,1.7 -1.9,1.7 h -31.1 c -1,0 -1.8,-0.7 -1.9,-1.7 l -18,-176.5 c -0.8,-7.9 -2.8,-15.7 -6.1,-23 -0.1,-0.3 -0.2,-0.5 -0.4,-0.8 -0.1,-0.2 -13.6,-24.5 -18.1,-40.9 -4.8,-18.4 -6.1,-58.5 -1.9,-65.3 z m 61.2,-54.9 h 1.8 c 12.4,-0.2 22.4,-4.6 29.9,-13.1 15.8,-17.7 13.4,-47.5 13.1,-51.1 -1.6,-32.5 -24.1,-44 -43,-44 h -1.8 c -18.8,0 -41.4,11.5 -43,44 -0.3,3.6 -2.7,33.3 13.1,51 7.5,8.5 17.6,12.9 29.9,13.2 z m -24.9,-62.5 v -0.6 c 1.1,-24.4 17.8,-27 24.9,-27 h 1.7 c 7.1,0 23.8,2.6 24.9,27 v 0.5 c 0.7,6.9 0.6,27.1 -8.6,37.4 -4.1,4.6 -9.7,6.9 -17,6.9 h -0.3 c -7.3,-0.1 -12.9,-2.3 -17,-6.9 -9.2,-10.2 -9.3,-30.4 -8.6,-37.3 z"
   style="fill:#2c2f33"
   id="path835"
   inkscape:connector-curvature="0" />


  </g>


  <g
   transform="translate(0,-212)"
   id="g896">

    <g
   transform="translate(2199.0524,-330.87282)"
   id="g875"
   style="opacity:1;stop-opacity:1">
      <path
   d="m 1322.6623,2284.0583 h 0.2 c 40.4,-0.4 34.5,-54.4 34.5,-54.4 -1.6,-36.1 -31.7,-35.8 -34.7,-35.7 -3,-0.1 -33.1,-0.4 -34.8,35.6 0,0 -5.9,54 34.6,54.4 0,0.1 0.1,0.1 0.2,0.1 z m 0,67.1 26.1,-36 c 0,0 18.4,7.4 33.4,18.5 3.9,2.9 5.7,4.6 9.2,8.1 8.3,8.3 4.8,56.4 0,74 -4.8,17.6 -18.9,42.9 -18.9,42.9 -2.8,6.4 -4.6,13.3 -5.3,20.2 l -18,176.5 c -0.6,5.6 -5.3,9.9 -10.9,9.9 h -31.2 c -5.6,0 -10.4,-4.3 -10.9,-9.9 l -18,-176.5 c -0.7,-7 -2.5,-13.8 -5.3,-20.2 0,0 -14.1,-25.2 -18.9,-42.9 -4.8,-17.6 -8.3,-65.7 0,-74 3.5,-3.5 5.3,-5.2 9.2,-8.1 15,-11 33.4,-18.5 33.4,-18.5 z"
   style="fill:#94a4a4"
   id="path845"
   inkscape:connector-curvature="0" />


      <path
   d="m 1119.6623,2433.6022 c 4.5,16.4 16.5,38.5 18.3,41.9 2.2,5.1 3.6,10.4 4.1,15.9 l 16.9,165.6 c 1,9.9 9.3,17.4 19.3,17.4 h 29.2 c 10,0 18.3,-7.5 19.3,-17.4 l 16.9,-165.6 c 0.6,-5.6 2,-11.1 4.3,-16.2 2,-4.6 -0.1,-9.9 -4.6,-11.9 -4.6,-2 -9.9,0.1 -11.9,4.6 -3,6.9 -5,14.2 -5.7,21.7 l -16.9,165.6 c -0.1,0.6 -0.6,1.1 -1.2,1.1 h -29.2 c -0.6,0 -1.2,-0.5 -1.2,-1.1 l -17.1,-165.7 c -0.8,-7.5 -2.7,-14.8 -5.7,-21.7 -0.1,-0.3 -0.2,-0.5 -0.4,-0.8 -0.1,-0.2 -12.7,-22.9 -16.9,-38.2 -4.6,-17.1 -5.9,-54.3 -2.1,-60.9 3,-3 4.3,-4.2 7.4,-6.5 7.9,-5.8 17,-10.5 22.9,-13.3 l 20.2,27.8 c 1.7,2.3 4.4,3.7 7.3,3.7 2.9,0 5.6,-1.4 7.3,-3.7 l 24.5,-33.7 c 2.9,-4 2,-9.7 -2,-12.7 -4,-2.9 -9.7,-2 -12.7,2 l -17.2,23.6 -17,-23.5 c -2.4,-3.4 -6.9,-4.6 -10.7,-3.1 -0.7,0.3 -18.5,7.5 -33.3,18.4 -4.2,3.1 -6.2,5 -9.7,8.5 -12.8,12.8 -5.7,66 -2.4,78.2 z m 72.4,-116.9 h 1.7 c 11.6,-0.3 21.4,-4.5 28.4,-12.4 14.9,-16.8 12.8,-44.8 12.4,-48.3 -1.5,-30.9 -23,-41.8 -40.9,-41.8 h -1.6 c -17.9,0 -39.3,11 -40.9,41.8 -0.3,3.5 -2.5,31.5 12.4,48.3 7.1,7.9 16.9,12.2 28.5,12.4 z m -22.8,-59.1 v -0.6 c 1,-21.6 14.7,-24.8 22.8,-24.8 h 1.5 c 8.1,0 21.8,3.2 22.8,24.8 v 0.5 c 0.7,6.4 0.5,25.1 -8,34.7 -3.7,4.2 -8.8,6.3 -15.5,6.3 h -0.2 c -6.7,-0.1 -11.8,-2.1 -15.5,-6.3 -8.4,-9.5 -8.5,-28.2 -7.9,-34.6 z m 232.8,205.6 c -4.6,2 -6.7,7.4 -4.6,11.9 2.3,5.2 3.7,10.6 4.3,16.2 l 16.9,165.6 c 1,9.9 9.3,17.4 19.3,17.4 h 29.2 c 10,0 18.3,-7.5 19.3,-17.4 l 16.9,-165.6 c 0.6,-5.5 1.9,-10.8 4.1,-15.9 1.8,-3.3 13.9,-25.4 18.3,-41.9 3.3,-12.2 10.5,-65.4 -2.3,-78.2 -3.5,-3.5 -5.5,-5.4 -9.7,-8.5 -14.8,-10.9 -32.5,-18.1 -33.3,-18.4 -3.9,-1.6 -8.3,-0.3 -10.7,3.1 l -17.2,23.6 -17.3,-23.5 c -2.9,-4.1 -8.6,-4.9 -12.7,-2 -4,2.9 -4.9,8.6 -2,12.7 l 24.5,33.7 c 1.7,2.3 4.4,3.7 7.3,3.7 2.9,0 5.6,-1.4 7.3,-3.7 l 20.2,-27.8 c 5.9,2.8 15,7.5 22.9,13.3 3,2.2 4.3,3.5 7.4,6.5 3.8,6.6 2.5,43.8 -2.1,60.9 -4.2,15.3 -16.8,38 -16.9,38.2 -0.1,0.2 -0.3,0.5 -0.4,0.8 -3,6.9 -5,14.2 -5.7,21.7 l -16.9,165.6 c -0.1,0.6 -0.6,1.1 -1.2,1.1 h -29.2 c -0.6,0 -1.2,-0.5 -1.2,-1.1 l -16.9,-165.6 c -0.8,-7.5 -2.7,-14.8 -5.7,-21.7 -2,-4.7 -7.3,-6.7 -11.9,-4.7 z m 49.5,-146.5 h 1.7 c 11.6,-0.2 21.4,-4.5 28.5,-12.4 14.9,-16.8 12.8,-44.8 12.4,-48.3 -1.5,-30.9 -22.9,-41.8 -40.9,-41.8 h -1.6 c -17.9,0 -39.3,11 -40.9,41.8 -0.3,3.5 -2.5,31.5 12.4,48.3 7,7.9 16.8,12.1 28.4,12.4 z m -22.8,-59.1 v -0.6 c 1,-21.6 14.7,-24.8 22.8,-24.8 h 1.5 c 8.1,0 21.8,3.2 22.8,24.8 v 0.5 c 0.7,6.4 0.5,25.1 -8,34.7 -3.7,4.2 -8.8,6.2 -15.5,6.3 h -0.2 c -6.7,-0.1 -11.8,-2.1 -15.5,-6.3 -8.4,-9.5 -8.5,-28.2 -7.9,-34.6 z m -181.2,77.7 c -13.5,13.5 -5.9,69.8 -2.3,82.8 4.8,17.5 17.6,41.1 19.5,44.5 2.4,5.5 3.9,11.2 4.5,17.1 l 18,176.5 c 1,10.3 9.6,18 20,18 h 31.1 c 10.3,0 18.9,-7.8 20,-18 l 18,-176.5 c 0.6,-5.9 2.1,-11.7 4.5,-17.1 1.9,-3.5 14.7,-27 19.5,-44.5 3.5,-13 11.2,-69.3 -2.3,-82.8 -3.7,-3.7 -5.8,-5.7 -10.2,-9 -15.7,-11.6 -34.6,-19.2 -35.4,-19.6 -3.9,-1.6 -8.3,-0.3 -10.7,3.1 l -19.1,25.9 -18.8,-25.9 c -2.4,-3.4 -6.9,-4.6 -10.7,-3.1 -0.8,0.3 -19.6,8 -35.4,19.6 -4.4,3.3 -6.6,5.3 -10.2,9 z m 13,12.6 c 3.3,-3.3 4.7,-4.6 8,-7 8.6,-6.4 18.6,-11.5 25,-14.5 l 21.8,30 c 1.7,2.3 4.4,3.7 7.3,3.7 2.9,0 5.6,-1.4 7.3,-3.7 l 21.8,-30 c 6.3,3 16.3,8.1 25,14.5 3.3,2.4 4.7,3.7 8,7 4.2,6.8 2.9,46.9 -2.2,65.4 -4.5,16.4 -17.9,40.6 -18.1,40.8 -0.1,0.2 -0.3,0.5 -0.4,0.8 -3.2,7.3 -5.3,15 -6.1,23 l -18,176.5 c -0.1,1 -0.9,1.7 -1.9,1.7 h -31.1 c -1,0 -1.8,-0.7 -1.9,-1.7 l -18,-176.5 c -0.8,-7.9 -2.8,-15.7 -6.1,-23 -0.1,-0.3 -0.2,-0.5 -0.4,-0.8 -0.1,-0.2 -13.6,-24.5 -18.1,-40.9 -4.8,-18.4 -6.1,-58.5 -1.9,-65.3 z m 61.2,-54.9 h 1.8 c 12.4,-0.2 22.4,-4.6 29.9,-13.1 15.8,-17.7 13.4,-47.5 13.1,-51.1 -1.6,-32.5 -24.1,-44 -43,-44 h -1.8 c -18.8,0 -41.4,11.5 -43,44 -0.3,3.6 -2.7,33.3 13.1,51 7.5,8.5 17.6,12.9 29.9,13.2 z m -24.9,-62.5 v -0.6 c 1.1,-24.4 17.8,-27 24.9,-27 h 1.7 c 7.1,0 23.8,2.6 24.9,27 v 0.5 c 0.7,6.9 0.6,27.1 -8.6,37.4 -4.1,4.6 -9.7,6.9 -17,6.9 h -0.3 c -7.3,-0.1 -12.9,-2.3 -17,-6.9 -9.2,-10.2 -9.3,-30.4 -8.6,-37.3 z"
   style="fill:#2c2f33"
   id="path847"
   inkscape:connector-curvature="0" />


    </g>


    <g
   id="g879"
   transform="translate(146.43799,320)"
   style="opacity:1;stop-opacity:1">
      <path
   inkscape:connector-curvature="0"
   id="path849"
   style="fill:#94a4a4"
   d="m 2640.6043,2284.0583 h 0.2 c 40.4,-0.4 34.5,-54.4 34.5,-54.4 -1.6,-36.1 -31.7,-35.8 -34.7,-35.7 -3,-0.1 -33.1,-0.4 -34.8,35.6 0,0 -5.9,54 34.6,54.4 0,0.1 0.1,0.1 0.2,0.1 z m 0,67.1 26.1,-36 c 0,0 18.4,7.4 33.4,18.5 3.9,2.9 5.7,4.6 9.2,8.1 8.3,8.3 4.8,56.4 0,74 -4.8,17.6 -18.9,42.9 -18.9,42.9 -2.8,6.4 -4.6,13.3 -5.3,20.2 l -18,176.5 c -0.6,5.6 -5.3,9.9 -10.9,9.9 h -31.2 c -5.6,0 -10.4,-4.3 -10.9,-9.9 l -18,-176.5 c -0.7,-7 -2.5,-13.8 -5.3,-20.2 0,0 -14.1,-25.2 -18.9,-42.9 -4.8,-17.6 -8.3,-65.7 0,-74 3.5,-3.5 5.3,-5.2 9.2,-8.1 15,-11 33.4,-18.5 33.4,-18.5 z" />


      <path
   inkscape:connector-curvature="0"
   id="path851"
   style="fill:#2c2f33"
   d="m 2437.6043,2433.6022 c 4.5,16.4 16.5,38.5 18.3,41.9 2.2,5.1 3.6,10.4 4.1,15.9 l 16.9,165.6 c 1,9.9 9.3,17.4 19.3,17.4 h 29.2 c 10,0 18.3,-7.5 19.3,-17.4 l 16.9,-165.6 c 0.6,-5.6 2,-11.1 4.3,-16.2 2,-4.6 -0.1,-9.9 -4.6,-11.9 -4.6,-2 -9.9,0.1 -11.9,4.6 -3,6.9 -5,14.2 -5.7,21.7 l -16.9,165.6 c -0.1,0.6 -0.6,1.1 -1.2,1.1 h -29.2 c -0.6,0 -1.2,-0.5 -1.2,-1.1 l -17.1,-165.7 c -0.8,-7.5 -2.7,-14.8 -5.7,-21.7 -0.1,-0.3 -0.2,-0.5 -0.4,-0.8 -0.1,-0.2 -12.7,-22.9 -16.9,-38.2 -4.6,-17.1 -5.9,-54.3 -2.1,-60.9 3,-3 4.3,-4.2 7.4,-6.5 7.9,-5.8 17,-10.5 22.9,-13.3 l 20.2,27.8 c 1.7,2.3 4.4,3.7 7.3,3.7 2.9,0 5.6,-1.4 7.3,-3.7 l 24.5,-33.7 c 2.9,-4 2,-9.7 -2,-12.7 -4,-2.9 -9.7,-2 -12.7,2 l -17.2,23.6 -17,-23.5 c -2.4,-3.4 -6.9,-4.6 -10.7,-3.1 -0.7,0.3 -18.5,7.5 -33.3,18.4 -4.2,3.1 -6.2,5 -9.7,8.5 -12.8,12.8 -5.7,66 -2.4,78.2 z m 72.4,-116.9 h 1.7 c 11.6,-0.3 21.4,-4.5 28.4,-12.4 14.9,-16.8 12.8,-44.8 12.4,-48.3 -1.5,-30.9 -23,-41.8 -40.9,-41.8 h -1.6 c -17.9,0 -39.3,11 -40.9,41.8 -0.3,3.5 -2.5,31.5 12.4,48.3 7.1,7.9 16.9,12.2 28.5,12.4 z m -22.8,-59.1 v -0.6 c 1,-21.6 14.7,-24.8 22.8,-24.8 h 1.5 c 8.1,0 21.8,3.2 22.8,24.8 v 0.5 c 0.7,6.4 0.5,25.1 -8,34.7 -3.7,4.2 -8.8,6.3 -15.5,6.3 h -0.2 c -6.7,-0.1 -11.8,-2.1 -15.5,-6.3 -8.4,-9.5 -8.5,-28.2 -7.9,-34.6 z m 232.8,205.6 c -4.6,2 -6.7,7.4 -4.6,11.9 2.3,5.2 3.7,10.6 4.3,16.2 l 16.9,165.6 c 1,9.9 9.3,17.4 19.3,17.4 h 29.2 c 10,0 18.3,-7.5 19.3,-17.4 l 16.9,-165.6 c 0.6,-5.5 1.9,-10.8 4.1,-15.9 1.8,-3.3 13.9,-25.4 18.3,-41.9 3.3,-12.2 10.5,-65.4 -2.3,-78.2 -3.5,-3.5 -5.5,-5.4 -9.7,-8.5 -14.8,-10.9 -32.5,-18.1 -33.3,-18.4 -3.9,-1.6 -8.3,-0.3 -10.7,3.1 l -17.2,23.6 -17.3,-23.5 c -2.9,-4.1 -8.6,-4.9 -12.7,-2 -4,2.9 -4.9,8.6 -2,12.7 l 24.5,33.7 c 1.7,2.3 4.4,3.7 7.3,3.7 2.9,0 5.6,-1.4 7.3,-3.7 l 20.2,-27.8 c 5.9,2.8 15,7.5 22.9,13.3 3,2.2 4.3,3.5 7.4,6.5 3.8,6.6 2.5,43.8 -2.1,60.9 -4.2,15.3 -16.8,38 -16.9,38.2 -0.1,0.2 -0.3,0.5 -0.4,0.8 -3,6.9 -5,14.2 -5.7,21.7 l -16.9,165.6 c -0.1,0.6 -0.6,1.1 -1.2,1.1 h -29.2 c -0.6,0 -1.2,-0.5 -1.2,-1.1 l -16.9,-165.6 c -0.8,-7.5 -2.7,-14.8 -5.7,-21.7 -2,-4.7 -7.3,-6.7 -11.9,-4.7 z m 49.5,-146.5 h 1.7 c 11.6,-0.2 21.4,-4.5 28.5,-12.4 14.9,-16.8 12.8,-44.8 12.4,-48.3 -1.5,-30.9 -22.9,-41.8 -40.9,-41.8 h -1.6 c -17.9,0 -39.3,11 -40.9,41.8 -0.3,3.5 -2.5,31.5 12.4,48.3 7,7.9 16.8,12.1 28.4,12.4 z m -22.8,-59.1 v -0.6 c 1,-21.6 14.7,-24.8 22.8,-24.8 h 1.5 c 8.1,0 21.8,3.2 22.8,24.8 v 0.5 c 0.7,6.4 0.5,25.1 -8,34.7 -3.7,4.2 -8.8,6.2 -15.5,6.3 h -0.2 c -6.7,-0.1 -11.8,-2.1 -15.5,-6.3 -8.4,-9.5 -8.5,-28.2 -7.9,-34.6 z m -181.2,77.7 c -13.5,13.5 -5.9,69.8 -2.3,82.8 4.8,17.5 17.6,41.1 19.5,44.5 2.4,5.5 3.9,11.2 4.5,17.1 l 18,176.5 c 1,10.3 9.6,18 20,18 h 31.1 c 10.3,0 18.9,-7.8 20,-18 l 18,-176.5 c 0.6,-5.9 2.1,-11.7 4.5,-17.1 1.9,-3.5 14.7,-27 19.5,-44.5 3.5,-13 11.2,-69.3 -2.3,-82.8 -3.7,-3.7 -5.8,-5.7 -10.2,-9 -15.7,-11.6 -34.6,-19.2 -35.4,-19.6 -3.9,-1.6 -8.3,-0.3 -10.7,3.1 l -19.1,25.9 -18.8,-25.9 c -2.4,-3.4 -6.9,-4.6 -10.7,-3.1 -0.8,0.3 -19.6,8 -35.4,19.6 -4.4,3.3 -6.6,5.3 -10.2,9 z m 13,12.6 c 3.3,-3.3 4.7,-4.6 8,-7 8.6,-6.4 18.6,-11.5 25,-14.5 l 21.8,30 c 1.7,2.3 4.4,3.7 7.3,3.7 2.9,0 5.6,-1.4 7.3,-3.7 l 21.8,-30 c 6.3,3 16.3,8.1 25,14.5 3.3,2.4 4.7,3.7 8,7 4.2,6.8 2.9,46.9 -2.2,65.4 -4.5,16.4 -17.9,40.6 -18.1,40.8 -0.1,0.2 -0.3,0.5 -0.4,0.8 -3.2,7.3 -5.3,15 -6.1,23 l -18,176.5 c -0.1,1 -0.9,1.7 -1.9,1.7 h -31.1 c -1,0 -1.8,-0.7 -1.9,-1.7 l -18,-176.5 c -0.8,-7.9 -2.8,-15.7 -6.1,-23 -0.1,-0.3 -0.2,-0.5 -0.4,-0.8 -0.1,-0.2 -13.6,-24.5 -18.1,-40.9 -4.8,-18.4 -6.1,-58.5 -1.9,-65.3 z m 61.2,-54.9 h 1.8 c 12.4,-0.2 22.4,-4.6 29.9,-13.1 15.8,-17.7 13.4,-47.5 13.1,-51.1 -1.6,-32.5 -24.1,-44 -43,-44 h -1.8 c -18.8,0 -41.4,11.5 -43,44 -0.3,3.6 -2.7,33.3 13.1,51 7.5,8.5 17.6,12.9 29.9,13.2 z m -24.9,-62.5 v -0.6 c 1.1,-24.4 17.8,-27 24.9,-27 h 1.7 c 7.1,0 23.8,2.6 24.9,27 v 0.5 c 0.7,6.9 0.6,27.1 -8.6,37.4 -4.1,4.6 -9.7,6.9 -17,6.9 h -0.3 c -7.3,-0.1 -12.9,-2.3 -17,-6.9 -9.2,-10.2 -9.3,-30.4 -8.6,-37.3 z" />


    </g>


    <g
   id="g883"
   transform="translate(-6.54346,320)"
   style="opacity:1;stop-opacity:1">
      <path
   d="m 4437.9658,2284.0583 h 0.2 c 40.4,-0.4 34.5,-54.4 34.5,-54.4 -1.6,-36.1 -31.7,-35.8 -34.7,-35.7 -3,-0.1 -33.1,-0.4 -34.8,35.6 0,0 -5.9,54 34.6,54.4 0,0.1 0.1,0.1 0.2,0.1 z m 0,67.1 26.1,-36 c 0,0 18.4,7.4 33.4,18.5 3.9,2.9 5.7,4.6 9.2,8.1 8.3,8.3 4.8,56.4 0,74 -4.8,17.6 -18.9,42.9 -18.9,42.9 -2.8,6.4 -4.6,13.3 -5.3,20.2 l -18,176.5 c -0.6,5.6 -5.3,9.9 -10.9,9.9 h -31.2 c -5.6,0 -10.4,-4.3 -10.9,-9.9 l -18,-176.5 c -0.7,-7 -2.5,-13.8 -5.3,-20.2 0,0 -14.1,-25.2 -18.9,-42.9 -4.8,-17.6 -8.3,-65.7 0,-74 3.5,-3.5 5.3,-5.2 9.2,-8.1 15,-11 33.4,-18.5 33.4,-18.5 z"
   style="fill:#94a4a4"
   id="path861"
   inkscape:connector-curvature="0" />


      <path
   d="m 4234.9658,2433.6022 c 4.5,16.4 16.5,38.5 18.3,41.9 2.2,5.1 3.6,10.4 4.1,15.9 l 16.9,165.6 c 1,9.9 9.3,17.4 19.3,17.4 h 29.2 c 10,0 18.3,-7.5 19.3,-17.4 l 16.9,-165.6 c 0.6,-5.6 2,-11.1 4.3,-16.2 2,-4.6 -0.1,-9.9 -4.6,-11.9 -4.6,-2 -9.9,0.1 -11.9,4.6 -3,6.9 -5,14.2 -5.7,21.7 l -16.9,165.6 c -0.1,0.6 -0.6,1.1 -1.2,1.1 h -29.2 c -0.6,0 -1.2,-0.5 -1.2,-1.1 l -17.1,-165.7 c -0.8,-7.5 -2.7,-14.8 -5.7,-21.7 -0.1,-0.3 -0.2,-0.5 -0.4,-0.8 -0.1,-0.2 -12.7,-22.9 -16.9,-38.2 -4.6,-17.1 -5.9,-54.3 -2.1,-60.9 3,-3 4.3,-4.2 7.4,-6.5 7.9,-5.8 17,-10.5 22.9,-13.3 l 20.2,27.8 c 1.7,2.3 4.4,3.7 7.3,3.7 2.9,0 5.6,-1.4 7.3,-3.7 l 24.5,-33.7 c 2.9,-4 2,-9.7 -2,-12.7 -4,-2.9 -9.7,-2 -12.7,2 l -17.2,23.6 -17,-23.5 c -2.4,-3.4 -6.9,-4.6 -10.7,-3.1 -0.7,0.3 -18.5,7.5 -33.3,18.4 -4.2,3.1 -6.2,5 -9.7,8.5 -12.8,12.8 -5.7,66 -2.4,78.2 z m 72.4,-116.9 h 1.7 c 11.6,-0.3 21.4,-4.5 28.4,-12.4 14.9,-16.8 12.8,-44.8 12.4,-48.3 -1.5,-30.9 -23,-41.8 -40.9,-41.8 h -1.6 c -17.9,0 -39.3,11 -40.9,41.8 -0.3,3.5 -2.5,31.5 12.4,48.3 7.1,7.9 16.9,12.2 28.5,12.4 z m -22.8,-59.1 v -0.6 c 1,-21.6 14.7,-24.8 22.8,-24.8 h 1.5 c 8.1,0 21.8,3.2 22.8,24.8 v 0.5 c 0.7,6.4 0.5,25.1 -8,34.7 -3.7,4.2 -8.8,6.3 -15.5,6.3 h -0.2 c -6.7,-0.1 -11.8,-2.1 -15.5,-6.3 -8.4,-9.5 -8.5,-28.2 -7.9,-34.6 z m 232.8,205.6 c -4.6,2 -6.7,7.4 -4.6,11.9 2.3,5.2 3.7,10.6 4.3,16.2 l 16.9,165.6 c 1,9.9 9.3,17.4 19.3,17.4 h 29.2 c 10,0 18.3,-7.5 19.3,-17.4 l 16.9,-165.6 c 0.6,-5.5 1.9,-10.8 4.1,-15.9 1.8,-3.3 13.9,-25.4 18.3,-41.9 3.3,-12.2 10.5,-65.4 -2.3,-78.2 -3.5,-3.5 -5.5,-5.4 -9.7,-8.5 -14.8,-10.9 -32.5,-18.1 -33.3,-18.4 -3.9,-1.6 -8.3,-0.3 -10.7,3.1 l -17.2,23.6 -17.3,-23.5 c -2.9,-4.1 -8.6,-4.9 -12.7,-2 -4,2.9 -4.9,8.6 -2,12.7 l 24.5,33.7 c 1.7,2.3 4.4,3.7 7.3,3.7 2.9,0 5.6,-1.4 7.3,-3.7 l 20.2,-27.8 c 5.9,2.8 15,7.5 22.9,13.3 3,2.2 4.3,3.5 7.4,6.5 3.8,6.6 2.5,43.8 -2.1,60.9 -4.2,15.3 -16.8,38 -16.9,38.2 -0.1,0.2 -0.3,0.5 -0.4,0.8 -3,6.9 -5,14.2 -5.7,21.7 l -16.9,165.6 c -0.1,0.6 -0.6,1.1 -1.2,1.1 h -29.2 c -0.6,0 -1.2,-0.5 -1.2,-1.1 l -16.9,-165.6 c -0.8,-7.5 -2.7,-14.8 -5.7,-21.7 -2,-4.7 -7.3,-6.7 -11.9,-4.7 z m 49.5,-146.5 h 1.7 c 11.6,-0.2 21.4,-4.5 28.5,-12.4 14.9,-16.8 12.8,-44.8 12.4,-48.3 -1.5,-30.9 -22.9,-41.8 -40.9,-41.8 h -1.6 c -17.9,0 -39.3,11 -40.9,41.8 -0.3,3.5 -2.5,31.5 12.4,48.3 7,7.9 16.8,12.1 28.4,12.4 z m -22.8,-59.1 v -0.6 c 1,-21.6 14.7,-24.8 22.8,-24.8 h 1.5 c 8.1,0 21.8,3.2 22.8,24.8 v 0.5 c 0.7,6.4 0.5,25.1 -8,34.7 -3.7,4.2 -8.8,6.2 -15.5,6.3 h -0.2 c -6.7,-0.1 -11.8,-2.1 -15.5,-6.3 -8.4,-9.5 -8.5,-28.2 -7.9,-34.6 z m -181.2,77.7 c -13.5,13.5 -5.9,69.8 -2.3,82.8 4.8,17.5 17.6,41.1 19.5,44.5 2.4,5.5 3.9,11.2 4.5,17.1 l 18,176.5 c 1,10.3 9.6,18 20,18 h 31.1 c 10.3,0 18.9,-7.8 20,-18 l 18,-176.5 c 0.6,-5.9 2.1,-11.7 4.5,-17.1 1.9,-3.5 14.7,-27 19.5,-44.5 3.5,-13 11.2,-69.3 -2.3,-82.8 -3.7,-3.7 -5.8,-5.7 -10.2,-9 -15.7,-11.6 -34.6,-19.2 -35.4,-19.6 -3.9,-1.6 -8.3,-0.3 -10.7,3.1 l -19.1,25.9 -18.8,-25.9 c -2.4,-3.4 -6.9,-4.6 -10.7,-3.1 -0.8,0.3 -19.6,8 -35.4,19.6 -4.4,3.3 -6.6,5.3 -10.2,9 z m 13,12.6 c 3.3,-3.3 4.7,-4.6 8,-7 8.6,-6.4 18.6,-11.5 25,-14.5 l 21.8,30 c 1.7,2.3 4.4,3.7 7.3,3.7 2.9,0 5.6,-1.4 7.3,-3.7 l 21.8,-30 c 6.3,3 16.3,8.1 25,14.5 3.3,2.4 4.7,3.7 8,7 4.2,6.8 2.9,46.9 -2.2,65.4 -4.5,16.4 -17.9,40.6 -18.1,40.8 -0.1,0.2 -0.3,0.5 -0.4,0.8 -3.2,7.3 -5.3,15 -6.1,23 l -18,176.5 c -0.1,1 -0.9,1.7 -1.9,1.7 h -31.1 c -1,0 -1.8,-0.7 -1.9,-1.7 l -18,-176.5 c -0.8,-7.9 -2.8,-15.7 -6.1,-23 -0.1,-0.3 -0.2,-0.5 -0.4,-0.8 -0.1,-0.2 -13.6,-24.5 -18.1,-40.9 -4.8,-18.4 -6.1,-58.5 -1.9,-65.3 z m 61.2,-54.9 h 1.8 c 12.4,-0.2 22.4,-4.6 29.9,-13.1 15.8,-17.7 13.4,-47.5 13.1,-51.1 -1.6,-32.5 -24.1,-44 -43,-44 h -1.8 c -18.8,0 -41.4,11.5 -43,44 -0.3,3.6 -2.7,33.3 13.1,51 7.5,8.5 17.6,12.9 29.9,13.2 z m -24.9,-62.5 v -0.6 c 1.1,-24.4 17.8,-27 24.9,-27 h 1.7 c 7.1,0 23.8,2.6 24.9,27 v 0.5 c 0.7,6.9 0.6,27.1 -8.6,37.4 -4.1,4.6 -9.7,6.9 -17,6.9 h -0.3 c -7.3,-0.1 -12.9,-2.3 -17,-6.9 -9.2,-10.2 -9.3,-30.4 -8.6,-37.3 z"
   style="fill:#2c2f33"
   id="path863"
   inkscape:connector-curvature="0" />


    </g>


    <g
   id="g887"
   transform="translate(-479.47217,320)"
   style="opacity:1;stop-opacity:1">
      <path
   inkscape:connector-curvature="0"
   id="path865"
   style="fill:#94a4a4"
   d="m 6555.2745,2284.0583 h 0.2 c 40.4,-0.4 34.5,-54.4 34.5,-54.4 -1.6,-36.1 -31.7,-35.8 -34.7,-35.7 -3,-0.1 -33.1,-0.4 -34.8,35.6 0,0 -5.9,54 34.6,54.4 0,0.1 0.1,0.1 0.2,0.1 z m 0,67.1 26.1,-36 c 0,0 18.4,7.4 33.4,18.5 3.9,2.9 5.7,4.6 9.2,8.1 8.3,8.3 4.8,56.4 0,74 -4.8,17.6 -18.9,42.9 -18.9,42.9 -2.8,6.4 -4.6,13.3 -5.3,20.2 l -18,176.5 c -0.6,5.6 -5.3,9.9 -10.9,9.9 h -31.2 c -5.6,0 -10.4,-4.3 -10.9,-9.9 l -18,-176.5 c -0.7,-7 -2.5,-13.8 -5.3,-20.2 0,0 -14.1,-25.2 -18.9,-42.9 -4.8,-17.6 -8.3,-65.7 0,-74 3.5,-3.5 5.3,-5.2 9.2,-8.1 15,-11 33.4,-18.5 33.4,-18.5 z" />


      <path
   inkscape:connector-curvature="0"
   id="path867"
   style="fill:#2c2f33"
   d="m 6352.2745,2433.6022 c 4.5,16.4 16.5,38.5 18.3,41.9 2.2,5.1 3.6,10.4 4.1,15.9 l 16.9,165.6 c 1,9.9 9.3,17.4 19.3,17.4 h 29.2 c 10,0 18.3,-7.5 19.3,-17.4 l 16.9,-165.6 c 0.6,-5.6 2,-11.1 4.3,-16.2 2,-4.6 -0.1,-9.9 -4.6,-11.9 -4.6,-2 -9.9,0.1 -11.9,4.6 -3,6.9 -5,14.2 -5.7,21.7 l -16.9,165.6 c -0.1,0.6 -0.6,1.1 -1.2,1.1 h -29.2 c -0.6,0 -1.2,-0.5 -1.2,-1.1 l -17.1,-165.7 c -0.8,-7.5 -2.7,-14.8 -5.7,-21.7 -0.1,-0.3 -0.2,-0.5 -0.4,-0.8 -0.1,-0.2 -12.7,-22.9 -16.9,-38.2 -4.6,-17.1 -5.9,-54.3 -2.1,-60.9 3,-3 4.3,-4.2 7.4,-6.5 7.9,-5.8 17,-10.5 22.9,-13.3 l 20.2,27.8 c 1.7,2.3 4.4,3.7 7.3,3.7 2.9,0 5.6,-1.4 7.3,-3.7 l 24.5,-33.7 c 2.9,-4 2,-9.7 -2,-12.7 -4,-2.9 -9.7,-2 -12.7,2 l -17.2,23.6 -17,-23.5 c -2.4,-3.4 -6.9,-4.6 -10.7,-3.1 -0.7,0.3 -18.5,7.5 -33.3,18.4 -4.2,3.1 -6.2,5 -9.7,8.5 -12.8,12.8 -5.7,66 -2.4,78.2 z m 72.4,-116.9 h 1.7 c 11.6,-0.3 21.4,-4.5 28.4,-12.4 14.9,-16.8 12.8,-44.8 12.4,-48.3 -1.5,-30.9 -23,-41.8 -40.9,-41.8 h -1.6 c -17.9,0 -39.3,11 -40.9,41.8 -0.3,3.5 -2.5,31.5 12.4,48.3 7.1,7.9 16.9,12.2 28.5,12.4 z m -22.8,-59.1 v -0.6 c 1,-21.6 14.7,-24.8 22.8,-24.8 h 1.5 c 8.1,0 21.8,3.2 22.8,24.8 v 0.5 c 0.7,6.4 0.5,25.1 -8,34.7 -3.7,4.2 -8.8,6.3 -15.5,6.3 h -0.2 c -6.7,-0.1 -11.8,-2.1 -15.5,-6.3 -8.4,-9.5 -8.5,-28.2 -7.9,-34.6 z m 232.8,205.6 c -4.6,2 -6.7,7.4 -4.6,11.9 2.3,5.2 3.7,10.6 4.3,16.2 l 16.9,165.6 c 1,9.9 9.3,17.4 19.3,17.4 h 29.2 c 10,0 18.3,-7.5 19.3,-17.4 l 16.9,-165.6 c 0.6,-5.5 1.9,-10.8 4.1,-15.9 1.8,-3.3 13.9,-25.4 18.3,-41.9 3.3,-12.2 10.5,-65.4 -2.3,-78.2 -3.5,-3.5 -5.5,-5.4 -9.7,-8.5 -14.8,-10.9 -32.5,-18.1 -33.3,-18.4 -3.9,-1.6 -8.3,-0.3 -10.7,3.1 l -17.2,23.6 -17.3,-23.5 c -2.9,-4.1 -8.6,-4.9 -12.7,-2 -4,2.9 -4.9,8.6 -2,12.7 l 24.5,33.7 c 1.7,2.3 4.4,3.7 7.3,3.7 2.9,0 5.6,-1.4 7.3,-3.7 l 20.2,-27.8 c 5.9,2.8 15,7.5 22.9,13.3 3,2.2 4.3,3.5 7.4,6.5 3.8,6.6 2.5,43.8 -2.1,60.9 -4.2,15.3 -16.8,38 -16.9,38.2 -0.1,0.2 -0.3,0.5 -0.4,0.8 -3,6.9 -5,14.2 -5.7,21.7 l -16.9,165.6 c -0.1,0.6 -0.6,1.1 -1.2,1.1 h -29.2 c -0.6,0 -1.2,-0.5 -1.2,-1.1 l -16.9,-165.6 c -0.8,-7.5 -2.7,-14.8 -5.7,-21.7 -2,-4.7 -7.3,-6.7 -11.9,-4.7 z m 49.5,-146.5 h 1.7 c 11.6,-0.2 21.4,-4.5 28.5,-12.4 14.9,-16.8 12.8,-44.8 12.4,-48.3 -1.5,-30.9 -22.9,-41.8 -40.9,-41.8 h -1.6 c -17.9,0 -39.3,11 -40.9,41.8 -0.3,3.5 -2.5,31.5 12.4,48.3 7,7.9 16.8,12.1 28.4,12.4 z m -22.8,-59.1 v -0.6 c 1,-21.6 14.7,-24.8 22.8,-24.8 h 1.5 c 8.1,0 21.8,3.2 22.8,24.8 v 0.5 c 0.7,6.4 0.5,25.1 -8,34.7 -3.7,4.2 -8.8,6.2 -15.5,6.3 h -0.2 c -6.7,-0.1 -11.8,-2.1 -15.5,-6.3 -8.4,-9.5 -8.5,-28.2 -7.9,-34.6 z m -181.2,77.7 c -13.5,13.5 -5.9,69.8 -2.3,82.8 4.8,17.5 17.6,41.1 19.5,44.5 2.4,5.5 3.9,11.2 4.5,17.1 l 18,176.5 c 1,10.3 9.6,18 20,18 h 31.1 c 10.3,0 18.9,-7.8 20,-18 l 18,-176.5 c 0.6,-5.9 2.1,-11.7 4.5,-17.1 1.9,-3.5 14.7,-27 19.5,-44.5 3.5,-13 11.2,-69.3 -2.3,-82.8 -3.7,-3.7 -5.8,-5.7 -10.2,-9 -15.7,-11.6 -34.6,-19.2 -35.4,-19.6 -3.9,-1.6 -8.3,-0.3 -10.7,3.1 l -19.1,25.9 -18.8,-25.9 c -2.4,-3.4 -6.9,-4.6 -10.7,-3.1 -0.8,0.3 -19.6,8 -35.4,19.6 -4.4,3.3 -6.6,5.3 -10.2,9 z m 13,12.6 c 3.3,-3.3 4.7,-4.6 8,-7 8.6,-6.4 18.6,-11.5 25,-14.5 l 21.8,30 c 1.7,2.3 4.4,3.7 7.3,3.7 2.9,0 5.6,-1.4 7.3,-3.7 l 21.8,-30 c 6.3,3 16.3,8.1 25,14.5 3.3,2.4 4.7,3.7 8,7 4.2,6.8 2.9,46.9 -2.2,65.4 -4.5,16.4 -17.9,40.6 -18.1,40.8 -0.1,0.2 -0.3,0.5 -0.4,0.8 -3.2,7.3 -5.3,15 -6.1,23 l -18,176.5 c -0.1,1 -0.9,1.7 -1.9,1.7 h -31.1 c -1,0 -1.8,-0.7 -1.9,-1.7 l -18,-176.5 c -0.8,-7.9 -2.8,-15.7 -6.1,-23 -0.1,-0.3 -0.2,-0.5 -0.4,-0.8 -0.1,-0.2 -13.6,-24.5 -18.1,-40.9 -4.8,-18.4 -6.1,-58.5 -1.9,-65.3 z m 61.2,-54.9 h 1.8 c 12.4,-0.2 22.4,-4.6 29.9,-13.1 15.8,-17.7 13.4,-47.5 13.1,-51.1 -1.6,-32.5 -24.1,-44 -43,-44 h -1.8 c -18.8,0 -41.4,11.5 -43,44 -0.3,3.6 -2.7,33.3 13.1,51 7.5,8.5 17.6,12.9 29.9,13.2 z m -24.9,-62.5 v -0.6 c 1.1,-24.4 17.8,-27 24.9,-27 h 1.7 c 7.1,0 23.8,2.6 24.9,27 v 0.5 c 0.7,6.9 0.6,27.1 -8.6,37.4 -4.1,4.6 -9.7,6.9 -17,6.9 h -0.3 c -7.3,-0.1 -12.9,-2.3 -17,-6.9 -9.2,-10.2 -9.3,-30.4 -8.6,-37.3 z" />


    </g>


    <g
   transform="translate(-2502.9426,-39.10224)"
   id="g891"
   style="opacity:1;stop-opacity:1">
      <path
   d="m 7900.1821,2284.0583 h 0.2 c 40.4,-0.4 34.5,-54.4 34.5,-54.4 -1.6,-36.1 -31.7,-35.8 -34.7,-35.7 -3,-0.1 -33.1,-0.4 -34.8,35.6 0,0 -5.9,54 34.6,54.4 0,0.1 0.1,0.1 0.2,0.1 z m 0,67.1 26.1,-36 c 0,0 18.4,7.4 33.4,18.5 3.9,2.9 5.7,4.6 9.2,8.1 8.3,8.3 4.8,56.4 0,74 -4.8,17.6 -18.9,42.9 -18.9,42.9 -2.8,6.4 -4.6,13.3 -5.3,20.2 l -18,176.5 c -0.6,5.6 -5.3,9.9 -10.9,9.9 h -31.2 c -5.6,0 -10.4,-4.3 -10.9,-9.9 l -18,-176.5 c -0.7,-7 -2.5,-13.8 -5.3,-20.2 0,0 -14.1,-25.2 -18.9,-42.9 -4.8,-17.6 -8.3,-65.7 0,-74 3.5,-3.5 5.3,-5.2 9.2,-8.1 15,-11 33.4,-18.5 33.4,-18.5 z"
   style="fill:#94a4a4"
   id="path869"
   inkscape:connector-curvature="0" />


      <path
   d="m 7697.1821,2433.6022 c 4.5,16.4 16.5,38.5 18.3,41.9 2.2,5.1 3.6,10.4 4.1,15.9 l 16.9,165.6 c 1,9.9 9.3,17.4 19.3,17.4 h 29.2 c 10,0 18.3,-7.5 19.3,-17.4 l 16.9,-165.6 c 0.6,-5.6 2,-11.1 4.3,-16.2 2,-4.6 -0.1,-9.9 -4.6,-11.9 -4.6,-2 -9.9,0.1 -11.9,4.6 -3,6.9 -5,14.2 -5.7,21.7 l -16.9,165.6 c -0.1,0.6 -0.6,1.1 -1.2,1.1 h -29.2 c -0.6,0 -1.2,-0.5 -1.2,-1.1 l -17.1,-165.7 c -0.8,-7.5 -2.7,-14.8 -5.7,-21.7 -0.1,-0.3 -0.2,-0.5 -0.4,-0.8 -0.1,-0.2 -12.7,-22.9 -16.9,-38.2 -4.6,-17.1 -5.9,-54.3 -2.1,-60.9 3,-3 4.3,-4.2 7.4,-6.5 7.9,-5.8 17,-10.5 22.9,-13.3 l 20.2,27.8 c 1.7,2.3 4.4,3.7 7.3,3.7 2.9,0 5.6,-1.4 7.3,-3.7 l 24.5,-33.7 c 2.9,-4 2,-9.7 -2,-12.7 -4,-2.9 -9.7,-2 -12.7,2 l -17.2,23.6 -17,-23.5 c -2.4,-3.4 -6.9,-4.6 -10.7,-3.1 -0.7,0.3 -18.5,7.5 -33.3,18.4 -4.2,3.1 -6.2,5 -9.7,8.5 -12.8,12.8 -5.7,66 -2.4,78.2 z m 72.4,-116.9 h 1.7 c 11.6,-0.3 21.4,-4.5 28.4,-12.4 14.9,-16.8 12.8,-44.8 12.4,-48.3 -1.5,-30.9 -23,-41.8 -40.9,-41.8 h -1.6 c -17.9,0 -39.3,11 -40.9,41.8 -0.3,3.5 -2.5,31.5 12.4,48.3 7.1,7.9 16.9,12.2 28.5,12.4 z m -22.8,-59.1 v -0.6 c 1,-21.6 14.7,-24.8 22.8,-24.8 h 1.5 c 8.1,0 21.8,3.2 22.8,24.8 v 0.5 c 0.7,6.4 0.5,25.1 -8,34.7 -3.7,4.2 -8.8,6.3 -15.5,6.3 h -0.2 c -6.7,-0.1 -11.8,-2.1 -15.5,-6.3 -8.4,-9.5 -8.5,-28.2 -7.9,-34.6 z m 232.8,205.6 c -4.6,2 -6.7,7.4 -4.6,11.9 2.3,5.2 3.7,10.6 4.3,16.2 l 16.9,165.6 c 1,9.9 9.3,17.4 19.3,17.4 h 29.2 c 10,0 18.3,-7.5 19.3,-17.4 l 16.9,-165.6 c 0.6,-5.5 1.9,-10.8 4.1,-15.9 1.8,-3.3 13.9,-25.4 18.3,-41.9 3.3,-12.2 10.5,-65.4 -2.3,-78.2 -3.5,-3.5 -5.5,-5.4 -9.7,-8.5 -14.8,-10.9 -32.5,-18.1 -33.3,-18.4 -3.9,-1.6 -8.3,-0.3 -10.7,3.1 l -17.2,23.6 -17.3,-23.5 c -2.9,-4.1 -8.6,-4.9 -12.7,-2 -4,2.9 -4.9,8.6 -2,12.7 l 24.5,33.7 c 1.7,2.3 4.4,3.7 7.3,3.7 2.9,0 5.6,-1.4 7.3,-3.7 l 20.2,-27.8 c 5.9,2.8 15,7.5 22.9,13.3 3,2.2 4.3,3.5 7.4,6.5 3.8,6.6 2.5,43.8 -2.1,60.9 -4.2,15.3 -16.8,38 -16.9,38.2 -0.1,0.2 -0.3,0.5 -0.4,0.8 -3,6.9 -5,14.2 -5.7,21.7 l -16.9,165.6 c -0.1,0.6 -0.6,1.1 -1.2,1.1 h -29.2 c -0.6,0 -1.2,-0.5 -1.2,-1.1 l -16.9,-165.6 c -0.8,-7.5 -2.7,-14.8 -5.7,-21.7 -2,-4.7 -7.3,-6.7 -11.9,-4.7 z m 49.5,-146.5 h 1.7 c 11.6,-0.2 21.4,-4.5 28.5,-12.4 14.9,-16.8 12.8,-44.8 12.4,-48.3 -1.5,-30.9 -22.9,-41.8 -40.9,-41.8 h -1.6 c -17.9,0 -39.3,11 -40.9,41.8 -0.3,3.5 -2.5,31.5 12.4,48.3 7,7.9 16.8,12.1 28.4,12.4 z m -22.8,-59.1 v -0.6 c 1,-21.6 14.7,-24.8 22.8,-24.8 h 1.5 c 8.1,0 21.8,3.2 22.8,24.8 v 0.5 c 0.7,6.4 0.5,25.1 -8,34.7 -3.7,4.2 -8.8,6.2 -15.5,6.3 h -0.2 c -6.7,-0.1 -11.8,-2.1 -15.5,-6.3 -8.4,-9.5 -8.5,-28.2 -7.9,-34.6 z m -181.2,77.7 c -13.5,13.5 -5.9,69.8 -2.3,82.8 4.8,17.5 17.6,41.1 19.5,44.5 2.4,5.5 3.9,11.2 4.5,17.1 l 18,176.5 c 1,10.3 9.6,18 20,18 h 31.1 c 10.3,0 18.9,-7.8 20,-18 l 18,-176.5 c 0.6,-5.9 2.1,-11.7 4.5,-17.1 1.9,-3.5 14.7,-27 19.5,-44.5 3.5,-13 11.2,-69.3 -2.3,-82.8 -3.7,-3.7 -5.8,-5.7 -10.2,-9 -15.7,-11.6 -34.6,-19.2 -35.4,-19.6 -3.9,-1.6 -8.3,-0.3 -10.7,3.1 l -19.1,25.9 -18.8,-25.9 c -2.4,-3.4 -6.9,-4.6 -10.7,-3.1 -0.8,0.3 -19.6,8 -35.4,19.6 -4.4,3.3 -6.6,5.3 -10.2,9 z m 13,12.6 c 3.3,-3.3 4.7,-4.6 8,-7 8.6,-6.4 18.6,-11.5 25,-14.5 l 21.8,30 c 1.7,2.3 4.4,3.7 7.3,3.7 2.9,0 5.6,-1.4 7.3,-3.7 l 21.8,-30 c 6.3,3 16.3,8.1 25,14.5 3.3,2.4 4.7,3.7 8,7 4.2,6.8 2.9,46.9 -2.2,65.4 -4.5,16.4 -17.9,40.6 -18.1,40.8 -0.1,0.2 -0.3,0.5 -0.4,0.8 -3.2,7.3 -5.3,15 -6.1,23 l -18,176.5 c -0.1,1 -0.9,1.7 -1.9,1.7 h -31.1 c -1,0 -1.8,-0.7 -1.9,-1.7 l -18,-176.5 c -0.8,-7.9 -2.8,-15.7 -6.1,-23 -0.1,-0.3 -0.2,-0.5 -0.4,-0.8 -0.1,-0.2 -13.6,-24.5 -18.1,-40.9 -4.8,-18.4 -6.1,-58.5 -1.9,-65.3 z m 61.2,-54.9 h 1.8 c 12.4,-0.2 22.4,-4.6 29.9,-13.1 15.8,-17.7 13.4,-47.5 13.1,-51.1 -1.6,-32.5 -24.1,-44 -43,-44 h -1.8 c -18.8,0 -41.4,11.5 -43,44 -0.3,3.6 -2.7,33.3 13.1,51 7.5,8.5 17.6,12.9 29.9,13.2 z m -24.9,-62.5 v -0.6 c 1.1,-24.4 17.8,-27 24.9,-27 h 1.7 c 7.1,0 23.8,2.6 24.9,27 v 0.5 c 0.7,6.9 0.6,27.1 -8.6,37.4 -4.1,4.6 -9.7,6.9 -17,6.9 h -0.3 c -7.3,-0.1 -12.9,-2.3 -17,-6.9 -9.2,-10.2 -9.3,-30.4 -8.6,-37.3 z"
   style="fill:#2c2f33"
   id="path871"
   inkscape:connector-curvature="0" />


    </g>


    <g
   style="opacity:1;stop-opacity:1"
   id="g52"
   transform="translate(-2974.2643,1227.0823)">
      <path
   inkscape:connector-curvature="0"
   id="path48"
   style="fill:#94a4a4"
   d="m 7900.1821,2284.0583 h 0.2 c 40.4,-0.4 34.5,-54.4 34.5,-54.4 -1.6,-36.1 -31.7,-35.8 -34.7,-35.7 -3,-0.1 -33.1,-0.4 -34.8,35.6 0,0 -5.9,54 34.6,54.4 0,0.1 0.1,0.1 0.2,0.1 z m 0,67.1 26.1,-36 c 0,0 18.4,7.4 33.4,18.5 3.9,2.9 5.7,4.6 9.2,8.1 8.3,8.3 4.8,56.4 0,74 -4.8,17.6 -18.9,42.9 -18.9,42.9 -2.8,6.4 -4.6,13.3 -5.3,20.2 l -18,176.5 c -0.6,5.6 -5.3,9.9 -10.9,9.9 h -31.2 c -5.6,0 -10.4,-4.3 -10.9,-9.9 l -18,-176.5 c -0.7,-7 -2.5,-13.8 -5.3,-20.2 0,0 -14.1,-25.2 -18.9,-42.9 -4.8,-17.6 -8.3,-65.7 0,-74 3.5,-3.5 5.3,-5.2 9.2,-8.1 15,-11 33.4,-18.5 33.4,-18.5 z" />


      <path
   inkscape:connector-curvature="0"
   id="path50"
   style="fill:#2c2f33"
   d="m 7697.1821,2433.6022 c 4.5,16.4 16.5,38.5 18.3,41.9 2.2,5.1 3.6,10.4 4.1,15.9 l 16.9,165.6 c 1,9.9 9.3,17.4 19.3,17.4 h 29.2 c 10,0 18.3,-7.5 19.3,-17.4 l 16.9,-165.6 c 0.6,-5.6 2,-11.1 4.3,-16.2 2,-4.6 -0.1,-9.9 -4.6,-11.9 -4.6,-2 -9.9,0.1 -11.9,4.6 -3,6.9 -5,14.2 -5.7,21.7 l -16.9,165.6 c -0.1,0.6 -0.6,1.1 -1.2,1.1 h -29.2 c -0.6,0 -1.2,-0.5 -1.2,-1.1 l -17.1,-165.7 c -0.8,-7.5 -2.7,-14.8 -5.7,-21.7 -0.1,-0.3 -0.2,-0.5 -0.4,-0.8 -0.1,-0.2 -12.7,-22.9 -16.9,-38.2 -4.6,-17.1 -5.9,-54.3 -2.1,-60.9 3,-3 4.3,-4.2 7.4,-6.5 7.9,-5.8 17,-10.5 22.9,-13.3 l 20.2,27.8 c 1.7,2.3 4.4,3.7 7.3,3.7 2.9,0 5.6,-1.4 7.3,-3.7 l 24.5,-33.7 c 2.9,-4 2,-9.7 -2,-12.7 -4,-2.9 -9.7,-2 -12.7,2 l -17.2,23.6 -17,-23.5 c -2.4,-3.4 -6.9,-4.6 -10.7,-3.1 -0.7,0.3 -18.5,7.5 -33.3,18.4 -4.2,3.1 -6.2,5 -9.7,8.5 -12.8,12.8 -5.7,66 -2.4,78.2 z m 72.4,-116.9 h 1.7 c 11.6,-0.3 21.4,-4.5 28.4,-12.4 14.9,-16.8 12.8,-44.8 12.4,-48.3 -1.5,-30.9 -23,-41.8 -40.9,-41.8 h -1.6 c -17.9,0 -39.3,11 -40.9,41.8 -0.3,3.5 -2.5,31.5 12.4,48.3 7.1,7.9 16.9,12.2 28.5,12.4 z m -22.8,-59.1 v -0.6 c 1,-21.6 14.7,-24.8 22.8,-24.8 h 1.5 c 8.1,0 21.8,3.2 22.8,24.8 v 0.5 c 0.7,6.4 0.5,25.1 -8,34.7 -3.7,4.2 -8.8,6.3 -15.5,6.3 h -0.2 c -6.7,-0.1 -11.8,-2.1 -15.5,-6.3 -8.4,-9.5 -8.5,-28.2 -7.9,-34.6 z m 232.8,205.6 c -4.6,2 -6.7,7.4 -4.6,11.9 2.3,5.2 3.7,10.6 4.3,16.2 l 16.9,165.6 c 1,9.9 9.3,17.4 19.3,17.4 h 29.2 c 10,0 18.3,-7.5 19.3,-17.4 l 16.9,-165.6 c 0.6,-5.5 1.9,-10.8 4.1,-15.9 1.8,-3.3 13.9,-25.4 18.3,-41.9 3.3,-12.2 10.5,-65.4 -2.3,-78.2 -3.5,-3.5 -5.5,-5.4 -9.7,-8.5 -14.8,-10.9 -32.5,-18.1 -33.3,-18.4 -3.9,-1.6 -8.3,-0.3 -10.7,3.1 l -17.2,23.6 -17.3,-23.5 c -2.9,-4.1 -8.6,-4.9 -12.7,-2 -4,2.9 -4.9,8.6 -2,12.7 l 24.5,33.7 c 1.7,2.3 4.4,3.7 7.3,3.7 2.9,0 5.6,-1.4 7.3,-3.7 l 20.2,-27.8 c 5.9,2.8 15,7.5 22.9,13.3 3,2.2 4.3,3.5 7.4,6.5 3.8,6.6 2.5,43.8 -2.1,60.9 -4.2,15.3 -16.8,38 -16.9,38.2 -0.1,0.2 -0.3,0.5 -0.4,0.8 -3,6.9 -5,14.2 -5.7,21.7 l -16.9,165.6 c -0.1,0.6 -0.6,1.1 -1.2,1.1 h -29.2 c -0.6,0 -1.2,-0.5 -1.2,-1.1 l -16.9,-165.6 c -0.8,-7.5 -2.7,-14.8 -5.7,-21.7 -2,-4.7 -7.3,-6.7 -11.9,-4.7 z m 49.5,-146.5 h 1.7 c 11.6,-0.2 21.4,-4.5 28.5,-12.4 14.9,-16.8 12.8,-44.8 12.4,-48.3 -1.5,-30.9 -22.9,-41.8 -40.9,-41.8 h -1.6 c -17.9,0 -39.3,11 -40.9,41.8 -0.3,3.5 -2.5,31.5 12.4,48.3 7,7.9 16.8,12.1 28.4,12.4 z m -22.8,-59.1 v -0.6 c 1,-21.6 14.7,-24.8 22.8,-24.8 h 1.5 c 8.1,0 21.8,3.2 22.8,24.8 v 0.5 c 0.7,6.4 0.5,25.1 -8,34.7 -3.7,4.2 -8.8,6.2 -15.5,6.3 h -0.2 c -6.7,-0.1 -11.8,-2.1 -15.5,-6.3 -8.4,-9.5 -8.5,-28.2 -7.9,-34.6 z m -181.2,77.7 c -13.5,13.5 -5.9,69.8 -2.3,82.8 4.8,17.5 17.6,41.1 19.5,44.5 2.4,5.5 3.9,11.2 4.5,17.1 l 18,176.5 c 1,10.3 9.6,18 20,18 h 31.1 c 10.3,0 18.9,-7.8 20,-18 l 18,-176.5 c 0.6,-5.9 2.1,-11.7 4.5,-17.1 1.9,-3.5 14.7,-27 19.5,-44.5 3.5,-13 11.2,-69.3 -2.3,-82.8 -3.7,-3.7 -5.8,-5.7 -10.2,-9 -15.7,-11.6 -34.6,-19.2 -35.4,-19.6 -3.9,-1.6 -8.3,-0.3 -10.7,3.1 l -19.1,25.9 -18.8,-25.9 c -2.4,-3.4 -6.9,-4.6 -10.7,-3.1 -0.8,0.3 -19.6,8 -35.4,19.6 -4.4,3.3 -6.6,5.3 -10.2,9 z m 13,12.6 c 3.3,-3.3 4.7,-4.6 8,-7 8.6,-6.4 18.6,-11.5 25,-14.5 l 21.8,30 c 1.7,2.3 4.4,3.7 7.3,3.7 2.9,0 5.6,-1.4 7.3,-3.7 l 21.8,-30 c 6.3,3 16.3,8.1 25,14.5 3.3,2.4 4.7,3.7 8,7 4.2,6.8 2.9,46.9 -2.2,65.4 -4.5,16.4 -17.9,40.6 -18.1,40.8 -0.1,0.2 -0.3,0.5 -0.4,0.8 -3.2,7.3 -5.3,15 -6.1,23 l -18,176.5 c -0.1,1 -0.9,1.7 -1.9,1.7 h -31.1 c -1,0 -1.8,-0.7 -1.9,-1.7 l -18,-176.5 c -0.8,-7.9 -2.8,-15.7 -6.1,-23 -0.1,-0.3 -0.2,-0.5 -0.4,-0.8 -0.1,-0.2 -13.6,-24.5 -18.1,-40.9 -4.8,-18.4 -6.1,-58.5 -1.9,-65.3 z m 61.2,-54.9 h 1.8 c 12.4,-0.2 22.4,-4.6 29.9,-13.1 15.8,-17.7 13.4,-47.5 13.1,-51.1 -1.6,-32.5 -24.1,-44 -43,-44 h -1.8 c -18.8,0 -41.4,11.5 -43,44 -0.3,3.6 -2.7,33.3 13.1,51 7.5,8.5 17.6,12.9 29.9,13.2 z m -24.9,-62.5 v -0.6 c 1.1,-24.4 17.8,-27 24.9,-27 h 1.7 c 7.1,0 23.8,2.6 24.9,27 v 0.5 c 0.7,6.9 0.6,27.1 -8.6,37.4 -4.1,4.6 -9.7,6.9 -17,6.9 h -0.3 c -7.3,-0.1 -12.9,-2.3 -17,-6.9 -9.2,-10.2 -9.3,-30.4 -8.6,-37.3 z" />


    </g>


    <g
   transform="translate(-4118.9027,927.9801)"
   id="g58"
   style="opacity:1;stop-opacity:1">
      <path
   d="m 7900.1821,2284.0583 h 0.2 c 40.4,-0.4 34.5,-54.4 34.5,-54.4 -1.6,-36.1 -31.7,-35.8 -34.7,-35.7 -3,-0.1 -33.1,-0.4 -34.8,35.6 0,0 -5.9,54 34.6,54.4 0,0.1 0.1,0.1 0.2,0.1 z m 0,67.1 26.1,-36 c 0,0 18.4,7.4 33.4,18.5 3.9,2.9 5.7,4.6 9.2,8.1 8.3,8.3 4.8,56.4 0,74 -4.8,17.6 -18.9,42.9 -18.9,42.9 -2.8,6.4 -4.6,13.3 -5.3,20.2 l -18,176.5 c -0.6,5.6 -5.3,9.9 -10.9,9.9 h -31.2 c -5.6,0 -10.4,-4.3 -10.9,-9.9 l -18,-176.5 c -0.7,-7 -2.5,-13.8 -5.3,-20.2 0,0 -14.1,-25.2 -18.9,-42.9 -4.8,-17.6 -8.3,-65.7 0,-74 3.5,-3.5 5.3,-5.2 9.2,-8.1 15,-11 33.4,-18.5 33.4,-18.5 z"
   style="fill:#94a4a4"
   id="path54"
   inkscape:connector-curvature="0" />


      <path
   d="m 7697.1821,2433.6022 c 4.5,16.4 16.5,38.5 18.3,41.9 2.2,5.1 3.6,10.4 4.1,15.9 l 16.9,165.6 c 1,9.9 9.3,17.4 19.3,17.4 h 29.2 c 10,0 18.3,-7.5 19.3,-17.4 l 16.9,-165.6 c 0.6,-5.6 2,-11.1 4.3,-16.2 2,-4.6 -0.1,-9.9 -4.6,-11.9 -4.6,-2 -9.9,0.1 -11.9,4.6 -3,6.9 -5,14.2 -5.7,21.7 l -16.9,165.6 c -0.1,0.6 -0.6,1.1 -1.2,1.1 h -29.2 c -0.6,0 -1.2,-0.5 -1.2,-1.1 l -17.1,-165.7 c -0.8,-7.5 -2.7,-14.8 -5.7,-21.7 -0.1,-0.3 -0.2,-0.5 -0.4,-0.8 -0.1,-0.2 -12.7,-22.9 -16.9,-38.2 -4.6,-17.1 -5.9,-54.3 -2.1,-60.9 3,-3 4.3,-4.2 7.4,-6.5 7.9,-5.8 17,-10.5 22.9,-13.3 l 20.2,27.8 c 1.7,2.3 4.4,3.7 7.3,3.7 2.9,0 5.6,-1.4 7.3,-3.7 l 24.5,-33.7 c 2.9,-4 2,-9.7 -2,-12.7 -4,-2.9 -9.7,-2 -12.7,2 l -17.2,23.6 -17,-23.5 c -2.4,-3.4 -6.9,-4.6 -10.7,-3.1 -0.7,0.3 -18.5,7.5 -33.3,18.4 -4.2,3.1 -6.2,5 -9.7,8.5 -12.8,12.8 -5.7,66 -2.4,78.2 z m 72.4,-116.9 h 1.7 c 11.6,-0.3 21.4,-4.5 28.4,-12.4 14.9,-16.8 12.8,-44.8 12.4,-48.3 -1.5,-30.9 -23,-41.8 -40.9,-41.8 h -1.6 c -17.9,0 -39.3,11 -40.9,41.8 -0.3,3.5 -2.5,31.5 12.4,48.3 7.1,7.9 16.9,12.2 28.5,12.4 z m -22.8,-59.1 v -0.6 c 1,-21.6 14.7,-24.8 22.8,-24.8 h 1.5 c 8.1,0 21.8,3.2 22.8,24.8 v 0.5 c 0.7,6.4 0.5,25.1 -8,34.7 -3.7,4.2 -8.8,6.3 -15.5,6.3 h -0.2 c -6.7,-0.1 -11.8,-2.1 -15.5,-6.3 -8.4,-9.5 -8.5,-28.2 -7.9,-34.6 z m 232.8,205.6 c -4.6,2 -6.7,7.4 -4.6,11.9 2.3,5.2 3.7,10.6 4.3,16.2 l 16.9,165.6 c 1,9.9 9.3,17.4 19.3,17.4 h 29.2 c 10,0 18.3,-7.5 19.3,-17.4 l 16.9,-165.6 c 0.6,-5.5 1.9,-10.8 4.1,-15.9 1.8,-3.3 13.9,-25.4 18.3,-41.9 3.3,-12.2 10.5,-65.4 -2.3,-78.2 -3.5,-3.5 -5.5,-5.4 -9.7,-8.5 -14.8,-10.9 -32.5,-18.1 -33.3,-18.4 -3.9,-1.6 -8.3,-0.3 -10.7,3.1 l -17.2,23.6 -17.3,-23.5 c -2.9,-4.1 -8.6,-4.9 -12.7,-2 -4,2.9 -4.9,8.6 -2,12.7 l 24.5,33.7 c 1.7,2.3 4.4,3.7 7.3,3.7 2.9,0 5.6,-1.4 7.3,-3.7 l 20.2,-27.8 c 5.9,2.8 15,7.5 22.9,13.3 3,2.2 4.3,3.5 7.4,6.5 3.8,6.6 2.5,43.8 -2.1,60.9 -4.2,15.3 -16.8,38 -16.9,38.2 -0.1,0.2 -0.3,0.5 -0.4,0.8 -3,6.9 -5,14.2 -5.7,21.7 l -16.9,165.6 c -0.1,0.6 -0.6,1.1 -1.2,1.1 h -29.2 c -0.6,0 -1.2,-0.5 -1.2,-1.1 l -16.9,-165.6 c -0.8,-7.5 -2.7,-14.8 -5.7,-21.7 -2,-4.7 -7.3,-6.7 -11.9,-4.7 z m 49.5,-146.5 h 1.7 c 11.6,-0.2 21.4,-4.5 28.5,-12.4 14.9,-16.8 12.8,-44.8 12.4,-48.3 -1.5,-30.9 -22.9,-41.8 -40.9,-41.8 h -1.6 c -17.9,0 -39.3,11 -40.9,41.8 -0.3,3.5 -2.5,31.5 12.4,48.3 7,7.9 16.8,12.1 28.4,12.4 z m -22.8,-59.1 v -0.6 c 1,-21.6 14.7,-24.8 22.8,-24.8 h 1.5 c 8.1,0 21.8,3.2 22.8,24.8 v 0.5 c 0.7,6.4 0.5,25.1 -8,34.7 -3.7,4.2 -8.8,6.2 -15.5,6.3 h -0.2 c -6.7,-0.1 -11.8,-2.1 -15.5,-6.3 -8.4,-9.5 -8.5,-28.2 -7.9,-34.6 z m -181.2,77.7 c -13.5,13.5 -5.9,69.8 -2.3,82.8 4.8,17.5 17.6,41.1 19.5,44.5 2.4,5.5 3.9,11.2 4.5,17.1 l 18,176.5 c 1,10.3 9.6,18 20,18 h 31.1 c 10.3,0 18.9,-7.8 20,-18 l 18,-176.5 c 0.6,-5.9 2.1,-11.7 4.5,-17.1 1.9,-3.5 14.7,-27 19.5,-44.5 3.5,-13 11.2,-69.3 -2.3,-82.8 -3.7,-3.7 -5.8,-5.7 -10.2,-9 -15.7,-11.6 -34.6,-19.2 -35.4,-19.6 -3.9,-1.6 -8.3,-0.3 -10.7,3.1 l -19.1,25.9 -18.8,-25.9 c -2.4,-3.4 -6.9,-4.6 -10.7,-3.1 -0.8,0.3 -19.6,8 -35.4,19.6 -4.4,3.3 -6.6,5.3 -10.2,9 z m 13,12.6 c 3.3,-3.3 4.7,-4.6 8,-7 8.6,-6.4 18.6,-11.5 25,-14.5 l 21.8,30 c 1.7,2.3 4.4,3.7 7.3,3.7 2.9,0 5.6,-1.4 7.3,-3.7 l 21.8,-30 c 6.3,3 16.3,8.1 25,14.5 3.3,2.4 4.7,3.7 8,7 4.2,6.8 2.9,46.9 -2.2,65.4 -4.5,16.4 -17.9,40.6 -18.1,40.8 -0.1,0.2 -0.3,0.5 -0.4,0.8 -3.2,7.3 -5.3,15 -6.1,23 l -18,176.5 c -0.1,1 -0.9,1.7 -1.9,1.7 h -31.1 c -1,0 -1.8,-0.7 -1.9,-1.7 l -18,-176.5 c -0.8,-7.9 -2.8,-15.7 -6.1,-23 -0.1,-0.3 -0.2,-0.5 -0.4,-0.8 -0.1,-0.2 -13.6,-24.5 -18.1,-40.9 -4.8,-18.4 -6.1,-58.5 -1.9,-65.3 z m 61.2,-54.9 h 1.8 c 12.4,-0.2 22.4,-4.6 29.9,-13.1 15.8,-17.7 13.4,-47.5 13.1,-51.1 -1.6,-32.5 -24.1,-44 -43,-44 h -1.8 c -18.8,0 -41.4,11.5 -43,44 -0.3,3.6 -2.7,33.3 13.1,51 7.5,8.5 17.6,12.9 29.9,13.2 z m -24.9,-62.5 v -0.6 c 1.1,-24.4 17.8,-27 24.9,-27 h 1.7 c 7.1,0 23.8,2.6 24.9,27 v 0.5 c 0.7,6.9 0.6,27.1 -8.6,37.4 -4.1,4.6 -9.7,6.9 -17,6.9 h -0.3 c -7.3,-0.1 -12.9,-2.3 -17,-6.9 -9.2,-10.2 -9.3,-30.4 -8.6,-37.3 z"
   style="fill:#2c2f33"
   id="path56"
   inkscape:connector-curvature="0" />


    </g>


  </g>


  <path
   style="fill:none;stroke:#000000;stroke-width:6.66676;stroke-linecap:butt;stroke-linejoin:miter;stroke-miterlimit:4;stroke-dasharray:none;stroke-opacity:1"
   d="m 4443.4414,648.2635 -0.6808,498.7656 v 0"
   id="path60"
   inkscape:connector-curvature="0"
   sodipodi:nodetypes="ccc">

  </path>


  <ellipse
   style="fill:none;stroke:#000000;stroke-width:7.52218;stroke-linecap:round;stroke-miterlimit:4;stroke-dasharray:none;stroke-opacity:0.416327"
   id="path891"
   cx="4441.7202"
   cy="2766.7915"
   rx="2646.2395"
   ry="1555.2778">

  </ellipse>


  <text
   id="text865"
   y="1007.8417"
   x="4606.2271"
   style="font-style:normal;font-variant:normal;font-weight:bold;font-stretch:normal;font-size:192px;line-height:1.25;font-family:Verdana;-inkscape-font-specification:'Verdana Bold';font-variant-ligatures:normal;font-variant-caps:normal;font-variant-numeric:normal;font-variant-east-asian:normal;fill:#000000;fill-opacity:1;stroke:none"
   xml:space="preserve">     <tspan
   y="1007.8417"
   x="4606.2271"
   id="tspan873"
   sodipodi:role="line">Former</tspan>  </text>


</svg>
